<?xml version="1.0" standalone="no"?>
<!DOCTYPE svg PUBLIC "-//W3C//DTD SVG 1.1//EN" "http://www.w3.org/Graphics/SVG/1.1/DTD/svg11.dtd" >
<svg xmlns="http://www.w3.org/2000/svg">
<metadata>
Created by FontForge 20120731 at Mon Nov 28 11:29:43 2016
 By admin
</metadata>
<defs>
<font id="iconfont" horiz-adv-x="1024" >
  <font-face 
    font-family="iconfont"
    font-weight="500"
    font-stretch="normal"
    units-per-em="1024"
    panose-1="2 0 6 3 0 0 0 0 0 0"
    ascent="896"
    descent="-128"
    x-height="792"
    bbox="44 -68 1112 1274"
    underline-thickness="0"
    underline-position="0"
    unicode-range="U+0078-E6C2"
  />
<missing-glyph 
 />
    <glyph glyph-name=".notdef" 
 />
    <glyph glyph-name=".notdef" 
 />
    <glyph glyph-name=".null" horiz-adv-x="0" 
 />
    <glyph glyph-name="nonmarkingreturn" horiz-adv-x="341" 
 />
    <glyph glyph-name="x" unicode="x" horiz-adv-x="1001" 
d="M281 543q-27 -1 -53 -1h-83q-18 0 -36.5 -6t-32.5 -18.5t-23 -32t-9 -45.5v-76h912v41q0 16 -0.5 30t-0.5 18q0 13 -5 29t-17 29.5t-31.5 22.5t-49.5 9h-133v-97h-438v97zM955 310v-52q0 -23 0.5 -52t0.5 -58t-10.5 -47.5t-26 -30t-33 -16t-31.5 -4.5q-14 -1 -29.5 -0.5
t-29.5 0.5h-32l-45 128h-439l-44 -128h-29h-34q-20 0 -45 1q-25 0 -41 9.5t-25.5 23t-13.5 29.5t-4 30v167h911zM163 247q-12 0 -21 -8.5t-9 -21.5t9 -21.5t21 -8.5q13 0 22 8.5t9 21.5t-9 21.5t-22 8.5zM316 123q-8 -26 -14 -48q-5 -19 -10.5 -37t-7.5 -25t-3 -15t1 -14.5
t9.5 -10.5t21.5 -4h37h67h81h80h64h36q23 0 34 12t2 38q-5 13 -9.5 30.5t-9.5 34.5q-5 19 -11 39h-368zM336 498v228q0 11 2.5 23t10 21.5t20.5 15.5t34 6h188q31 0 51.5 -14.5t20.5 -52.5v-227h-327z" />
    <glyph glyph-name="shouye" unicode="&#xe611;" 
d="M883 438q-13 0 -22.5 -9t-9.5 -22q0 -82 -37.5 -153.5t-108.5 -123.5l-175 -127q-18 -13 -36 1l-175 126q-71 52 -109 123.5t-38 153.5q0 13 -9 22t-22 9t-22 -9t-9 -22q0 -97 44.5 -181.5t127.5 -145.5l175 -127q25 -18 55 -18q31 0 55 18l174 127q84 61 128.5 145.5
t44.5 181.5q0 13 -9 22t-22 9zM850 718l-302 107h-1q-35 11 -70 0h-1l-301 -107q-29 -9 -47 -33.5t-18 -54.5v-120q0 -13 9 -22t22 -9t22 9t9 22v120q0 22 22 29l302 107q16 5 31 0l303 -107q21 -7 21 -29v-120q0 -13 9.5 -22t22.5 -9t22 9t9 22v120q0 30 -17.5 54.5
t-46.5 33.5zM400 667q-13 0 -22 -9t-9 -22v-30q0 -13 9 -22.5t22 -9.5t22.5 9.5t9.5 22.5v30q0 13 -9.5 22t-22.5 9zM623 667q-13 0 -22 -9t-9 -22v-30q0 -13 9 -22.5t22 -9.5t22.5 9.5t9.5 22.5v30q0 13 -9.5 22t-22.5 9zM546 517q-13 -20 -34 -20t-34 20q-7 11 -19.5 13.5
t-23 -4t-13.5 -19.5t3 -24q11 -17 34 -32.5t52.5 -15.5t52.5 15t34 33q7 11 4.5 23.5t-13.5 19.5t-23.5 4.5t-19.5 -13.5zM397 220h84v-83q0 -13 9 -22t22 -9t22 9t9 22v83h83q13 0 22.5 9.5t9.5 22t-9.5 22t-22.5 9.5h-83v83q0 13 -9 22t-22 9t-22 -9t-9 -22v-83h-84
q-13 0 -22 -9.5t-9 -22t9 -22t22 -9.5z" />
    <glyph glyph-name="shouye1" unicode="&#xe612;" 
d="M949 461l-77 67v88q0 13 -9.5 22t-22 9t-22 -9t-9.5 -22v-33l-276 240v0q-3 2 -7 4v0q0 1 -1 1v0h-1v0l-1 1h-1h-1v0h-0.5t-0.5 1h-0.5h-0.5h-1v0h-1h-1h-1v0q-8 1 -15 -2v0l-1 -1v0h-1h-1v-1h-1v0l-1 -1h-1q0 -1 -1 -1v0q0 -1 -1 -1v0l-286 -249v31q0 13 -9.5 22.5
t-22.5 9.5t-22 -9.5t-9 -22.5v-83v-2l-67 -59q-10 -9 -11 -21.5t7 -22.5q10 -11 24 -11q12 0 21 8l395 344l396 -344q9 -8 21 -8q14 0 23 11q9 10 8 22.5t-11 21.5zM846 411q-13 0 -22.5 -9t-9.5 -22v-310q0 -30 -17 -51t-41 -21h-487q-24 0 -41 21t-17 51v310q0 13 -9.5 22
t-22.5 9t-22 -9t-9 -22v-310q0 -56 35.5 -95.5t85.5 -39.5h487q50 0 85.5 39.5t35.5 95.5v310q0 13 -9 22t-22 9zM391 490q-13 0 -22.5 -9t-9.5 -22v-30q0 -13 9.5 -22.5t22.5 -9.5t22 9.5t9 22.5v30q0 13 -9 22t-22 9zM634 490q-13 0 -22 -9t-9 -22v-30q0 -13 9 -22.5
t22 -9.5t22.5 9.5t9.5 22.5v30q0 13 -9.5 22t-22.5 9zM589 349q-11 7 -23.5 4.5t-19.5 -13.5q-1 -2 -4 -5.5t-12 -9t-18 -5.5q-20 0 -33 20q-7 10 -19.5 13t-23.5 -3.5t-14 -19.5t4 -24q11 -17 34 -32.5t52.5 -15.5t52 15t34.5 33q7 11 4 23.5t-14 19.5z" />
    <glyph glyph-name="shouye2" unicode="&#xe613;" 
d="M958 554q-8 60 -41.5 110.5t-86.5 81.5q-74 43 -161.5 29.5t-151.5 -78.5l-4 -4l-5 4q-64 65 -151 78.5t-162 -29.5q-53 -31 -86.5 -81.5t-41.5 -110.5q-8 -61 11 -118t62 -100q9 -10 22 -10t22 9t9 22t-9 22q-32 33 -46.5 76.5t-8.5 90.5q6 46 31.5 84t66.5 62
q56 32 122 21.5t115 -60.5l26 -27q9 -9 22.5 -9t22.5 9l26 27q49 50 115.5 60.5t121.5 -21.5q41 -24 66.5 -62t31.5 -84q6 -47 -8.5 -90.5t-46.5 -76.5q-9 -9 -9 -22t9 -22t22 -9t22 10q43 43 62 100t11 118zM767 305l-249 -253q-2 -2 -5.5 -2t-5.5 2l-249 253q-9 10 -22 10
t-22.5 -9t-9.5 -22t9 -22l250 -254q20 -21 50 -21v0q29 0 49 21l250 254q9 9 9 22t-9.5 22t-22.5 9t-22 -10zM391 563q-13 0 -22.5 -9t-9.5 -22v-31q0 -13 9.5 -22t22.5 -9t22 9t9 22v31q0 13 -9 22t-22 9zM634 563q-13 0 -22 -9t-9 -22v-31q0 -13 9 -22t22 -9t22.5 9
t9.5 22v31q0 13 -9.5 22t-22.5 9zM589.5 421.5q-10.5 7.5 -23 4.5t-20.5 -13q-13 -20 -34 -20q-20 0 -33 19q-7 11 -19.5 14t-23.5 -4t-14 -19.5t4 -23.5q11 -18 34 -33t52.5 -15t52.5 15t34 33q7 11 4 23t-13.5 19.5z" />
    <glyph glyph-name="shouye3" unicode="&#xe614;" 
d="M387 685q13 0 22 9.5t9 21.5v11h187v-11q0 -12 9 -21.5t22 -9.5t22 9.5t9 21.5v83q0 13 -9 22.5t-22 9.5t-22 -9.5t-9 -22.5v-10h-187v10q0 13 -9 22.5t-22 9.5t-22 -9.5t-9 -22.5v-83q0 -12 9 -21.5t22 -9.5zM400.5 581q-12.5 0 -22 -9t-9.5 -22v-30q0 -13 9.5 -22
t22 -9t22 9t9.5 22v30q0 13 -9.5 22t-22 9zM622.5 581q-12.5 0 -22 -9t-9.5 -22v-30q0 -13 9.5 -22t22 -9t22 9t9.5 22v30q0 13 -9.5 22t-22 9zM511 350q29 0 52 15t34 33q7 10 4.5 22.5t-13.5 19.5t-23.5 4.5t-19.5 -13.5q-13 -19 -34 -19q-20 0 -33 19q-7 11 -19.5 14
t-23.5 -4t-13.5 -19.5t3.5 -23.5q11 -18 34 -33t52 -15zM464 -3h-198q-31 0 -53 23t-22 55v575q0 32 22 54.5t53 22.5q13 0 22 9t9 22t-9 22t-22 9q-57 0 -97.5 -41t-40.5 -98v-575q0 -58 40.5 -99t97.5 -41h198q13 0 22 9t9 22t-9 22t-22 9zM757 789q-13 0 -22 -9t-9 -22
t9 -22t22 -9q31 0 53 -22.5t22 -54.5v-305q0 -13 9 -22.5t22 -9.5t22 9.5t9 22.5v305q0 57 -40 98t-97 41zM841 245l-228 -234l-110 114q-9 9 -22 9.5t-22.5 -8.5t-9.5 -22t9 -22l133 -137v-1h1l2 -2l1 -1q1 0 1 -1q1 0 4 -1q0 -1 0.5 -1t1.5 -1q1 0 4 -1h0.5h0.5q3 -1 6 -1
t6 1h1.5h0.5q3 1 4 1q1 1 1.5 1t0.5 1l3 1q1 1 2 1q0 1 1 1l2 2v0l1 1l250 257q9 9 8.5 22t-9.5 22t-22 8.5t-22 -9.5z" />
    <glyph glyph-name="Apple" unicode="&#xe660;" 
d="M511 632q-76 0 -130 54.5t-54 131.5q76 0 130 -54.5t54 -131.5zM575 585q53 0 101.5 -20t82.5 -55t56 -81t23.5 -96.5t-15.5 -103.5l-57 -158q-14 -39 -43 -68h1q-8 -12 -43 -31q-3 -2 -6 -3l38 25q-36 -31 -81 -40l-8 -2q-31 0 -62 11q-21 8 -45 9v0h-5v0v0
q-26 0 -51 -9q-16 -6 -35 -8q-39 -4 -73 12q-69 32 -95 104l-57 158q-16 53 -15 103.5t23 96.5t56 81t82.5 55t101.5 20h126zM408 71l-56 158q-17 51 -16 101t22 95t53 80t78.5 56.5t97.5 23.5h-12h-126q-53 0 -101.5 -20t-82.5 -55t-56 -81t-23 -96.5t15 -103.5l57 -158
q26 -72 95 -104q34 -16 73 -12q18 2 36 8q17 6 34 8q-63 33 -88 100zM706 45q-5 0 -9 3q-6 4 -7.5 10.5t2.5 12.5q13 22 17 47l50 134q17 46 10.5 93.5t-33.5 87.5q-25 35 -60 56q-6 4 -7.5 10.5t2 12.5t10 8t12.5 -2q41 -25 70 -66q32 -47 39.5 -102.5t-11.5 -108.5
l-57 -158q-11 -32 -35 -55q14 18 9 18zM626 511q-7 0 -12 5t-5 12t5 12t12 5v0q7 0 12 -5t5 -12t-5 -12t-12 -5zM511 632q-76 0 -130 54.5t-54 131.5zM804 481.5q-40 57.5 -100 89t-129 31.5h-46v1q0 37 16.5 68.5t46.5 52.5q6 4 7 10.5t-2.5 12.5t-10.5 7t-12 -3
q-50 -34 -69 -90q-8 82 -58 127.5t-120 45.5q-7 0 -11.5 -4.5t-4.5 -11.5q0 -80 53.5 -138t131.5 -64v-13v-1h-47q-69 0 -129 -31.5t-100 -89t-49 -125t15 -133.5l56 -158q28 -78 104 -113q38 -18 81 -14q21 2 41 9q21 8 44 8v0q11 0 21 -2q21 -3 40 -13l6 -0.5t15.5 -1.5
t17.5 -1q35 0 67 15q46 22 76 62q-15 -15 -22.5 -23t-8.5 -9t0 -1q42 36 59 88l-1 -6q6 15 10 44l47 116q23 66 14 133.5t-49 125zM393 698.5q-42 42.5 -48 101.5q58 -6 100.5 -48.5t48.5 -101.5q-59 6 -101 48.5zM807 234l-56 -157q-13 -36 -39 -62v-1q-14 -15 -43 -30
q16 11 23.5 16t8.5 5.5l1 0.5q-32 -27 -73 -35l-13 -2q-25 2 -49 10q-23 8 -49 9h-1h-5v0q-28 0 -55 -9q-16 -6 -33 -7q-34 -4 -65 10q-62 29 -86 95l-56 157q-21 59 -13 118.5t43 110t88 78.5t114 28h126q61 0 114 -28t88 -78.5t43 -110t-13 -118.5z" />
    <glyph glyph-name="Beans" unicode="&#xe661;" 
d="M867 357h-127q0 26 19 44.5t45 18.5t44.5 -18.5t18.5 -44.5zM686 357h-127q0 26 18.5 44.5t45 18.5t45 -18.5t18.5 -44.5zM504 357h-126q0 26 18.5 44.5t44.5 18.5t44.5 -18.5t18.5 -44.5zM323 357h-126q0 26 18.5 44.5t44.5 18.5t44.5 -18.5t18.5 -44.5zM942 420v-4
q0 -24 -17.5 -41.5t-41.5 -17.5h-16q0 26 -18.5 44.5t-44.5 18.5t-44.5 -18.5t-18.5 -44.5h-55q0 26 -18.5 44.5t-44.5 18.5t-45 -18.5t-19 -44.5h-54q0 26 -18.5 44.5t-45 18.5t-45 -18.5t-18.5 -44.5h-54q0 26 -19 44.5t-45 18.5t-44.5 -18.5t-18.5 -44.5h-54
q-25 0 -42.5 17.5t-17.5 41.5v4q2 24 19 40t41 16h740q25 0 42 -17q16 -16 17 -39zM882 357h60q-33 -55 -89 -86t-119 -31h-443q-64 0 -119.5 31t-89.5 86h800zM247 357h-165q34 -55 89.5 -86t119.5 -31h165q-64 0 -120 31t-89 86zM942 421v0q-2 22 -17 38q-18 17 -43 17
h-740q-24 0 -41 -16t-18 -39h-1q0 44 32 75.5t76 31.5h644q45 0 76.5 -31.5t31.5 -75.5zM734 272q-7 0 -11.5 4.5t-4.5 11t4.5 11t11.5 4.5q47 0 89 23q13 7 20.5 -6.5t-5.5 -20.5q-49 -27 -104 -27zM258 388.5q0 -6.5 4.5 -11t11 -4.5t11 4.5t4.5 11t-4.5 11t-11 4.5
t-11 -4.5t-4.5 -11zM622 388.5q0 -6.5 4.5 -11t11 -4.5t11 4.5t4.5 11t-4.5 11t-11 4.5t-11 -4.5t-4.5 -11zM437 388.5q0 -6.5 4.5 -11t11 -4.5t11 4.5t4.5 11t-4.5 11t-11 4.5t-11 -4.5t-4.5 -11zM805 388.5q0 -6.5 4.5 -11t11 -4.5t11 4.5t4.5 11t-4.5 11t-11 4.5
t-11 -4.5t-4.5 -11zM958 421v-1q0 51 -36.5 87.5t-87.5 36.5h-644q-51 0 -87 -36.5t-36 -87.5v1v-5q0 -24 14 -44q-8 -1 -12 -8q-5 -8 0 -16q36 -57 95 -90.5t127 -33.5h443q67 0 126.5 33.5t94.5 90.5q5 8 1 16q-4 7 -13 8q15 20 15 44v5zM142 461h741q18 0 31 -13
t13 -31.5t-13 -31.5t-31 -13h-2q-5 27 -27 45t-50 18t-50 -18t-27 -45h-27q-6 27 -27.5 45t-50 18t-50 -18t-27.5 -45h-27q-5 27 -26.5 45t-50 18t-50.5 -18t-27 -45h-27q-5 27 -27 45t-50 18t-50 -18t-27 -45h-41q-18 0 -31 13t-13 31.5t13 31.5t31 13zM215 372
q4 14 16.5 23t28 9t28 -9t17.5 -23h-90zM396 372q5 14 17.5 23t28 9t28 -9t17.5 -23h-91zM577 372q5 14 17.5 23t28 9t28 -9t17.5 -23h-91zM759 372q4 14 16.5 23t28 9t28 -9t17.5 -23h-90zM834 513q35 0 61 -22q-7 1 -12 1h-741q-6 0 -12 -1q26 22 60 22h644zM846 284
q-52 -29 -112 -29h-443q-60 0 -112 29q-39 22 -67 57h801q-28 -35 -67 -57z" />
    <glyph glyph-name="Bacon" unicode="&#xe662;" 
d="M943 310v-113q-72 0 -143.5 17t-143.5 17t-144 -17t-143.5 -17t-143.5 17t-144 17v114q72 0 144 -17.5t143.5 -17.5t143.5 17.5t144 17.5t144 -17.5t143 -17.5zM943 423v-113q-72 0 -143.5 17.5t-143.5 17.5t-144 -17.5t-143.5 -17.5t-143.5 17.5t-144 17.5v113
q72 0 144 -17.5t143.5 -17.5t143.5 17.5t144 17.5t144 -17.5t143 -17.5zM943 537v-114q-72 0 -143.5 17.5t-143.5 17.5t-144 -17.5t-143.5 -17.5t-143.5 17.5t-144 17.5v113q72 0 144 -17t143.5 -17t143.5 17t144 17t144 -17t143 -17zM877 488v0q0 -6 5 -11t11.5 -5t11.5 5
t5 11v0v0q0 7 -5 12t-11.5 5t-11.5 -5t-5 -12v0zM943 553q-70 0 -139 17q-74 18 -148 18t-148 -18q-69 -17 -139.5 -17t-139.5 17q-74 18 -148 18q-7 0 -11.5 -5t-4.5 -12v-340q0 -6 4.5 -11t11.5 -5q70 0 140 -17q73 -18 147.5 -18t147.5 18q70 17 140 17t140 -17
q73 -18 147 -18q7 0 12 5t5 12v340q0 6 -5 11t-12 5zM221 538q73 -18 147.5 -18t147.5 18q70 17 140 17t140 -17q68 -16 131 -17v-81q-59 1 -124 16q-73 18 -147 18t-148 -17q-70 -17 -140 -17t-139 17q-68 16 -132 17v81q59 -1 124 -17zM927 407v-81q-59 2 -123 17
q-74 18 -148 18t-148 -18q-69 -17 -139.5 -17t-139.5 17q-68 16 -132 18v80q60 -1 124 -16q73 -18 147.5 -18t147.5 18q70 17 140 17t140 -17q69 -17 131 -18zM804 230q-74 18 -148 18t-148 -18q-69 -17 -139.5 -17t-139.5 17q-68 16 -132 17v81q60 -1 124 -16
q73 -18 147.5 -18t147.5 18q70 16 140 16t140 -16q68 -17 131 -18v-81q-59 1 -123 17zM893.5 232q-6.5 0 -11.5 5t-5 11v188q0 7 5 12t11.5 5t11.5 -5t5 -12v-188q0 -6 -5 -11t-11.5 -5z" />
    <glyph glyph-name="Avocado" unicode="&#xe663;" 
d="M736 449q60 -115 60 -219q0 -117 -83 -200t-200.5 -83t-200.5 83t-83 200q0 104 59 219q35 67 59 135q24 69 69 118.5t96.5 49.5t96 -49.5t69.5 -118.5q24 -68 58 -135zM645 218q0 38 -17.5 82t-49 76.5t-66 32.5t-66.5 -32.5t-49 -76.5t-17 -82q0 -55 38.5 -93.5
t93.5 -38.5t94 39t39 93zM512.5 409q34.5 0 66 -32.5t49 -76.5t17.5 -81q0 -55 -39 -94t-94 -39t-94 39t-39 94q0 37 17.5 81t49.5 76.5t66.5 32.5zM592 170q-3 0 -6 1q-14 6 -8 20q5 13 5 28q0 42 -29 90q-8 12 -16 21q-11 12 0.5 22t21.5 -1t19 -26q35 -55 35 -106
q0 -21 -8 -40q-4 -9 -14 -9zM512 425q-60 0 -107 -76q-41 -66 -41 -131q0 -61 43.5 -104t104.5 -43t104.5 43t43.5 104q0 65 -41 131q-47 76 -107 76zM512.5 101q-48.5 0 -83 34.5t-34.5 83.5q0 33 16 74t44 71t57.5 30t57.5 -30t44 -71t16 -74q0 -49 -34.5 -83.5t-83 -34.5
zM750 456q-34 66 -58 133q-24 68 -68 119t-96 59v49q0 7 -4.5 11.5t-11 4.5t-11 -4.5t-4.5 -11.5v-49q-52 -8 -96.5 -59t-68.5 -119q-23 -67 -57 -133q-62 -118 -62 -226q0 -123 88 -210.5t211.5 -87.5t211 87.5t87.5 210.5q0 108 -61 226zM512 -38q-111 0 -189.5 78.5
t-78.5 189.5q0 100 58 212q35 67 59 137q22 63 63.5 110.5t87.5 47.5t87.5 -47.5t63.5 -110.5q25 -70 60 -137q58 -111 58 -212q0 -111 -79 -189.5t-190 -78.5zM497 362v0q0 -6 4.5 -10.5t11 -4.5t11 4.5t4.5 10.5v0q0 6 -4.5 10.5t-11 4.5t-11 -4.5t-4.5 -10.5z" />
    <glyph glyph-name="Banana" unicode="&#xe664;" 
d="M869 180q30 3 50.5 -17t20 -48.5t-24.5 -47.5q-16 -13 -35 -26zM193 789q19 24 47.5 24.5t48.5 -20t17 -51.5q-3 -25 -3 -51l-145 48q62 98 158 161zM869 180l11 -139q-129 -87 -286 -87q-105 0 -200 41t-163.5 109.5t-109 163.5t-40.5 200q0 147 77 271l145 -49
q0 -104 41 -199t109.5 -164t163.5 -109.5t200 -40.5q27 0 52 3zM191 468q0 128 60 240l-93 31q-77 -124 -77 -271q0 -105 40.5 -200t109 -163.5t163.5 -109.5t200 -41q28 0 55 3q-127 14 -232 84.5t-165.5 183t-60.5 243.5zM658 127q-3 0 -5 1q-144 41 -251 148
q-120 121 -157 285q-2 7 2 13t11.5 8t13.5 -2t8 -11q34 -154 147 -268q101 -100 236 -139q7 -2 10.5 -8.5t1.5 -13.5q-3 -13 -17 -13zM232 642v0q0 -7 5 -12.5t12.5 -5.5t12.5 5.5t5 12.5v0v0q0 7 -5 12.5t-12.5 5.5t-12.5 -5.5t-5 -12.5v0zM950.5 147.5q-10.5 25.5 -33 39
t-50.5 10.5q-24 -2 -50 -2v0q-99 0 -189.5 37.5t-161 107.5t-108 160.5t-37.5 190.5v0q0 26 3 52q2 26 -11.5 48.5t-39 33t-51 4t-43.5 -28.5q-56 -70 -86 -156t-30 -176q0 -107 40 -204t115 -172t172 -115t204 -40q90 0 176 30t156 86q22 17 28.5 43t-4 51.5zM207 778
q14 17 35 17q9 0 18 -3q31 -14 28 -48q-2 -15 -2 -29l-101 33q65 93 159 151zM243 117q-70 70 -107 160.5t-37 190.5q0 135 67 249l119 -39q3 -103 43 -196.5t113 -166.5q75 -76 172 -116t204 -40q18 0 35 1l10 -110q-122 -78 -268 -78q-99 0 -190 37.5t-161 107.5zM904 81
q-3 -2 -9 -7l-7 86q21 -5 30 -26q13 -32 -14 -53zM737 76q-20 -2 -41 -2q-99 0 -189.5 37.5t-161 107.5t-107.5 160.5t-37 190.5q0 30 3 59q1 7 -3.5 13t-12 7t-13.5 -4t-6 -12q-4 -31 -4 -63q0 -107 40 -204t115 -172t172.5 -115t203.5 -40q22 0 44 2q7 0 12 5.5t4.5 13
t-6 12.5t-13.5 4v0z" />
    <glyph glyph-name="Aubergine" unicode="&#xe665;" 
d="M676 125q4 -70 -44.5 -121.5t-119.5 -51.5q-68 0 -116 48t-48 115q0 5 1 10l15 257l62 74l86 -102l86 102l62 -74zM434 115q0 5 1 10l16 257l19 22l-44 52l-62 -74l-15 -256q-1 -6 -1 -11q0 -67 48 -115t116 -48q22 0 43 5q-53 15 -87 58.5t-34 99.5zM674 516l10 -162
l-24 28l-62 74l-86 -102l-86 102l-85 -102l10 162q2 42 24.5 76.5t57.5 54.5q27 15 31 46l11 95q2 13 11 20.5t21.5 7.5t21.5 -8t10 -20l12 -89q4 -33 34 -48q38 -20 62 -55.5t27 -79.5zM423 516q2 42 24.5 76.5t57.5 54.5q27 15 31 46l7 62l-4 33q-1 12 -10.5 20.5
t-21.5 8.5t-21 -8t-11 -20l-12 -96q-4 -31 -30 -46q-36 -20 -58 -54.5t-25 -76.5l-9 -162l77 92zM606 29q-5 0 -9 3q-12 9 -3 21q23 31 21 69l-13 205q0 6 4 11t10 5.5t11 -4t5 -10.5l13 -205q3 -50 -27 -89q-4 -6 -12 -6v0zM629 475q-6 0 -10 4t-5 10l-1 23q-2 27 -17 49.5
t-39 34.5q-23 12 -39 31q-10 12 1.5 21.5t21.5 -1.5q12 -15 30 -24q31 -16 50.5 -45t21.5 -64l1 -23q1 -6 -3.5 -10.5t-10.5 -5.5h-1zM493 678v0q0 -6 4 -10.5t10.5 -4.5t11 4.5t4.5 10.5v0q0 7 -4.5 11t-11 4t-10.5 -4t-4 -11v0zM598 380.5q0 -6.5 4.5 -11t11 -4.5t11 4.5
t4.5 11t-4.5 11t-11 4.5t-11 -4.5t-4.5 -11zM689 340q10 4 10 15l-10 162q-3 47 -29.5 86.5t-68.5 60.5q-22 12 -26 37l-11 89q-2 18 -15.5 30t-31 12t-31 -12t-15.5 -30l-12 -95q-3 -23 -23 -35q-40 -22 -64 -60t-26 -83l-11 -162q0 -11 10 -15q6 -3 12 0l-14 -214v-11
q0 -74 52.5 -126.5t126.5 -52.5q78 0 130.5 56.5t48.5 133.5l-13 214q2 -1 6 -1q2 -1 5 1zM366 515q2 37 21.5 68.5t52.5 50.5t38 57l12 95q1 7 6 11t11.5 4t11 -4t5.5 -11l12 -89q5 -41 42 -60q35 -17 56.5 -50t24.5 -72l7 -117l-57 68q-4 5 -11 5t-12 -5l-74 -89l-74 89
q-5 5 -12 5t-11 -5l-57 -68zM621 13q-45 -47 -109 -47q-61 0 -105 44t-44 105q0 5 1 9l15 252l47 56l75 -88q4 -5 11 -5t12 5l74 88l47 -56l16 -251q4 -65 -40 -112v0z" />
    <glyph glyph-name="BellPepper" unicode="&#xe666;" 
d="M684 714v-7q0 -15 -10.5 -25.5t-25.5 -10.5t-25.5 10.5t-10.5 25.5v6q0 12 -8.5 21.5t-20.5 10.5q-14 2 -24.5 -7.5t-10.5 -23.5v-155h-72v153q0 42 29.5 73.5t72.5 32.5t74.5 -30t31.5 -74zM243 427l147 -391q17 -46 58 -69v0q-42 -15 -82 -1q-30 10 -54 63.5t-36 113
t-21 134.5t-10.5 104t-2.5 46v0h1v0zM781 427v0h1q-1 -17 -2.5 -46t-10 -104t-21 -134.5t-36.5 -113t-54 -63.5q-40 -14 -82 1v0q41 23 58 69zM548 560h141q52 0 81 -42.5t11 -90.5v0l-147 -392q-17 -46 -58 -68q-29 -16 -63.5 -16t-64.5 16q-41 23 -58 68l-147 392v0
q-18 48 11.5 90t80.5 42zM508 -34q-31 10 -55 62.5t-36.5 115.5t-20.5 132t-10.5 106t-2.5 45h1q-18 48 11.5 90t80.5 42h-141q-51 0 -80.5 -42t-11.5 -90h-1q1 -17 2.5 -46t10 -104t21 -134.5t36.5 -113t54 -63.5q40 -14 82 1v0q55 -30 113 -7q-27 -3 -53 6v0zM674 511
q0 -6 4.5 -10.5t11 -4.5t11 4.5t4.5 10.5v0q0 7 -4.5 11.5t-11 4.5t-11 -4.5t-4.5 -11.5v0zM783 526q-34 49 -94 49h-125v139q0 7 5.5 12t12.5 4q6 -1 10 -6t4 -11v-6q0 -22 15.5 -37t37 -15t36.5 15t15 37v7q0 50 -36 85t-87 34q-48 -1 -82 -36.5t-34 -84.5v-137h-126
q-59 0 -93 -49q-32 -46 -15 -100q4 -108 22 -218q36 -231 113 -257q20 -8 43 -8v0q21 0 42 7q30 -15 65.5 -15t65.5 15q21 -7 41 -7q23 0 44 8q77 27 113 257q8 49 13 103.5t7 84.5l2 30q17 54 -15 100zM492 712q0 36 25 62.5t61 27.5q37 1 64 -25q26 -26 26 -63v-7
q0 -9 -6 -15t-14 -6t-14 6t-6 15v6q0 18 -12.5 32t-30.5 16q-21 2 -36.5 -12t-15.5 -35v-139h-41v137zM372 -20q-10 4 -20 15t-23 34.5t-26 71t-24 111.5q-8 51 -14 110l110 -292q12 -32 36 -55q-20 -1 -39 5zM405 41l-147 391q-15 41 9.5 76.5t67.5 35.5h354q43 0 68 -35.5
t9 -76.5l-146 -391q-15 -38 -45 -56.5t-63 -18.5t-63 18.5t-44 56.5zM653 -20q-20 -6 -40 -5q24 23 36 55l110 292q-6 -61 -14 -109q-10 -65 -23 -112.5t-26 -71t-23.5 -34.5t-19.5 -15zM401 473q-1 7 -6.5 10.5t-12 2.5t-10 -6.5t-2.5 -11.5l69 -380q3 -13 16 -13h2
q7 1 10.5 6.5t2.5 11.5zM641.5 486q-6.5 1 -12 -2.5t-6.5 -10.5l-69 -380q-1 -6 2.5 -11.5t10.5 -6.5h3q13 0 15 12l69 381q1 6 -2.5 11.5t-10 6.5zM654 7q-5 0 -10 3q-12 9 -3 22q11 14 22 43q20 54 35 144q0 2 1.5 13t2.5 16q17 104 21 148q6 70 -5 84q-9 13 3.5 22.5
t21.5 -3.5q12 -15 13 -53t-4.5 -81t-18.5 -122l-4 -28q-15 -94 -36 -150q-13 -34 -27 -52q-4 -6 -12 -6v0z" />
    <glyph glyph-name="Bread" unicode="&#xe667;" 
d="M774 476q8 -8 8 -20.5t-8.5 -21t-20.5 -8.5t-21 9l-61 61h83zM543 476q8 -8 8 -20.5t-8.5 -21t-20.5 -8.5t-21 9l-61 61h83zM312 476q8 -8 8 -20.5t-8.5 -21t-20.5 -8.5t-21 9l-61 61h83zM905 474.5q38 -37.5 38 -90.5t-38 -90.5t-91 -37.5h-604q-53 0 -90.5 37.5
t-37.5 90.5q0 49 32 85t79 42l77 -76q8 -9 20.5 -9t21 8.5t8.5 21t-9 20.5l-36 36h148l78 -77q8 -9 20.5 -9t21 8.5t8.5 21t-9 20.5l-36 36h148l78 -77q8 -9 20.5 -9t21 8.5t8.5 21t-9 20.5l-36 36h77q53 0 91 -37.5zM182 384q0 58 43 96l-32 31q-47 -6 -79 -42t-32 -85
q0 -53 37.5 -90.5t90.5 -37.5h100q-53 0 -90.5 37.5t-37.5 90.5zM889 336q-3 0 -6 2q-6 2 -8.5 8t0.5 12q5 12 5 26q0 28 -19 47q-11 11 0 21.5t22 -0.5q28 -28 28 -68q0 -20 -8 -38q-4 -10 -14 -10zM672 413q-6 0 -11 4l-37 38q-11 11 0 21.5t22 -0.5l37 -37q11 -11 0 -22
q-5 -4 -11 -4zM451 403q-6 0 -11 5l-47 47q-11 11 0 21.5t22 -0.5l47 -47q10 -11 0 -21q-5 -5 -11 -5zM814 464.5q0 -6.5 4.5 -11t11 -4.5t11 4.5t4.5 11t-4.5 11t-11 4.5t-11 -4.5t-4.5 -11zM916 485q-42 42 -102 42h-76q-11 0 -15 -9q-1 -3 -1 -7h-45l-12 12q-5 4 -11 4
h-147q-11 0 -15 -9q-1 -3 -1 -7h-45l-12 12q-5 4 -11 4h-147q-11 0 -15 -9q-1 -3 -1 -7h-45l-11 11q-5 5 -13 4q-53 -7 -88.5 -47.5t-35.5 -94.5q0 -59 42 -101t101 -42h604q60 0 102 42t42 101t-42 101zM748 481l15 -15q10 -11 0 -21t-20 0l-36 36h41zM517 481l15 -15
q10 -11 0 -21t-20 0l-36 36h41zM286 481l15 -15q4 -5 4 -11t-4 -10t-10 -4t-10 4l-36 36h41zM814 271h-604q-46 0 -79.5 33t-33.5 80q0 40 26 71.5t65 39.5l71 -71q13 -13 31.5 -13t31.5 13t13 31.5t-13 31.5l-10 10h105l73 -73q13 -13 31.5 -13t31.5 13t13 31.5t-13 31.5
l-10 10h105l73 -73q13 -13 31.5 -13t31.5 13t13 31.5t-13 31.5l-10 10h40q47 0 80 -33t33 -80t-33 -80t-80 -33z" />
    <glyph glyph-name="BirthdayCake" unicode="&#xe668;" 
d="M889 62l-18 -43q-6 -14 -19.5 -23t-29.5 -9h-619q-16 0 -29.5 8.5t-19.5 23.5l-18 43h753zM548 673q-6 -6 -14 -10q-11 -5 -22 -5q-21 0 -36 15t-15 36t15 36l36 36l36 -36q15 -14 15 -35.5t-15 -36.5zM548 673q-6 -6 -14 -10q-14 6 -21 18q-11 9 -10 29.5t16 34.5l15 15
l14 -15q15 -15 15 -36t-15 -36zM455 615h114v-145h-114v145zM455 615h36v-145h-36v145zM841 401l-32 -29q-14 -13 -33 -13t-33 13t-33 13t-33 -13t-33 -13t-33 13t-33 13t-33 -13t-33 -13t-33 13t-33 13t-33 -13t-33 -13t-33 13t-33 13t-33 -13t-33 -13t-33 13l-31 29
q6 30 30 49.5t55 19.5h487q31 0 54.5 -19.5t30.5 -49.5zM182 130h661v-68h-661v68zM182 288h661v-62h-661v62zM182 226h661v-96h-661v96zM843 383v-95h-661v95q0 9 2 18l31 -29q14 -13 33 -13t33 13t33 13t33 -13.5t33 -13.5t33 13.5t33 13.5t33 -13.5t33 -13.5t33 13.5
t33 13.5t33 -13t33 -13t33 13t33 13t33 -13t33 -13t33 13l31 29q3 -8 3 -18zM298 -13h-95q-16 0 -29.5 8.5t-19.5 23.5l-18 43h94l18 -43q7 -14 20 -23t30 -9zM402 470q-31 0 -55 -19.5t-30 -49.5q-2 -8 -2 -16h-1q-19 0 -33 -13t-33 -13t-33 13l-31 29q6 30 30 49.5
t55 19.5h133zM182 130h133v-68h-133v68zM182 288h133v-62h-133v62zM182 226h133v-96h-133v96zM314 385h1v-97h-133v95q0 9 2 18l31 -29q14 -13 33 -13t33 13t33 13zM315 385zM524 500q-7 0 -11.5 4.5t-4.5 10.5v56q0 7 4.5 11.5t11 4.5t11 -4.5t4.5 -11.5v-56v0
q0 -6 -4.5 -10.5t-10.5 -4.5v0zM512.5 643q27.5 0 46.5 19q20 20 20 47.5t-20 46.5l-36 36q-11 11 -22 0l-36 -36q-19 -19 -19 -46.5t19 -47.5q20 -19 47.5 -19zM487 734l25 26l25 -26q11 -10 11 -24.5t-10.5 -25t-25 -10.5t-25 10.5t-10.5 25t10 24.5zM944 78h-86v305
q0 42 -30 72t-72 30h-171v130q0 6 -4.5 10.5t-11.5 4.5h-114q-6 0 -10.5 -4.5t-4.5 -10.5v-130h-171q-43 0 -73 -30t-30 -72v-305h-86q-6 0 -10.5 -4.5t-4.5 -11t4.5 -11t10.5 -4.5h45l28 -66q4 -10 14 -10h690q10 0 14 10l28 66h45q7 0 11.5 4.5t4.5 11t-4.5 11t-11.5 4.5z
M205 360q18 -17 43 -17t44 17v0q9 9 22 9t23 -9q18 -17 43 -17t44 17q9 9 22 9t23 -8v-1q18 -17 43.5 -17t43.5 17q9 9 22 9t23 -9q18 -17 43.5 -17t43.5 17v1q9 8 22.5 8t22.5 -9q18 -17 43.5 -17t43.5 17l7 7v-64h-630v64zM827 241h-630v31h630v-31zM197 210h630v-64h-630
v64zM471 599h83v-114h-83v114v0zM269 454h487q23 0 41.5 -13.5t25.5 -34.5l-24 -23q-10 -9 -23 -9t-22 9q-19 17 -44 17t-43 -17v0q-10 -9 -23 -9t-22 9q-19 17 -44 17t-43 -17q-10 -9 -23 -9t-22 9v0q-19 17 -44 17t-43 -17q-10 -9 -23 -9t-22 9q-19 17 -44 17t-43 -17h-1
q-9 -9 -22 -9t-22 9l-25 23q7 21 25.5 34.5t42.5 13.5zM197 115h630v-37h-630v37zM847 2h-669l-19 45h706zM795.5 138q-6.5 0 -11 4.5t-4.5 10.5v230q0 2 -1 5q-2 8 -8.5 13.5t-14.5 5.5q-7 0 -11.5 4.5t-4.5 11t4.5 11t11.5 4.5q19 0 34 -12.5t19 -31.5q2 -5 2 -11v-230
q0 -6 -4.5 -10.5t-11 -4.5zM780 103.5q0 -6.5 4.5 -11t11 -4.5t11 4.5t4.5 11t-4.5 11t-11 4.5t-11 -4.5t-4.5 -11zM802 24.5q0 -6.5 4.5 -11t11 -4.5t11 4.5t4.5 11t-4.5 11t-11 4.5t-11 -4.5t-4.5 -11z" />
    <glyph glyph-name="BoiledEgg" unicode="&#xe669;" 
d="M771 471h-518q0 78 34.5 157t95.5 133t129.5 54t129.5 -54t95 -133t34 -157zM568 805q-27 10 -56 10q-68 0 -129 -54t-95.5 -133t-34.5 -157h113q0 67 26 136t73 123.5t103 74.5zM577 23q29 0 49.5 -20.5t20.5 -49.5h-269q0 29 20.5 49.5t49.5 20.5h129zM517 23h-69
q-29 0 -49.5 -20.5t-20.5 -49.5h69q0 29 21 49.5t49 20.5zM577 164v-141h-129v141q30 -8 64 -8v0q33 0 65 8zM505 164v-141h-58v141q15 -8 29.5 -8t28.5 8zM771 471h37q0 -111 -65.5 -197t-165.5 -110q-31 -8 -65 -8v0v0q-34 0 -66 8q-99 24 -164 110t-65 197h554zM376 471
h-159q0 -111 65.5 -197t164.5 -110q31 -8 65 -8v0v0q34 0 67 8q41 11 78 30q-136 8 -208.5 85.5t-72.5 191.5zM658 241q-7 0 -12 6q-10 12 2 22q24 19 42 43q38 50 49 113q2 13 16 13h3q13 -2 13 -16q0 -1 -1 -3q-12 -71 -54 -126q-45 -58 -112 -87q55 33 55 35h-1v0z
M715 520q-13 0 -16 13q-15 70 -54.5 127.5t-87.5 79.5q-6 3 -8 9t0.5 12t8.5 8.5t12 -0.5q56 -25 102 -92q42 -63 58 -138q2 -6 -1.5 -11.5t-10.5 -6.5q-1 -1 -3 -1zM495 767.5q0 -6.5 5 -11t11.5 -4.5t11 4.5t4.5 11t-4.5 11.5t-11 5t-11.5 -5t-5 -11.5zM824 471v0
q0 7 -5 11.5t-11 4.5v0h-21q-4 80 -41 159t-100 132t-133.5 53t-134 -53t-100 -132t-40.5 -159h-21v0q-7 0 -11.5 -4.5t-4.5 -11.5v0q0 -113 65 -202t166 -117v-114q-30 -6 -50 -30t-20 -55v0q0 -6 4.5 -11t11.5 -5v0h269v0q7 0 11.5 5t4.5 11v0q0 31 -20 55t-50 30v114
q101 28 166 117t65 202zM342 692q76 107 170.5 107t169.5 -107q67 -96 73 -205h-485q5 109 72 205zM233 455h558q-5 -118 -86 -200.5t-192.5 -82.5t-192.5 82.5t-87 200.5zM629 -31h-233q5 17 19 27.5t32 10.5h130q18 0 32 -10.5t20 -27.5zM561 39h-98v105q25 -4 49.5 -4
t48.5 4v-105z" />
    <glyph glyph-name="Brochette" unicode="&#xe66a;" 
d="M883 384v-115h-75v230h75v-115zM637 384v-115h-75v230h75v-115zM391 384v-115h-75v230h75v-115zM760 384v-47q0 -15 -11 -26t-26.5 -11t-26.5 11t-11 26v94q0 15 11 26t27 11v0q15 0 26 -11t11 -26v0v-47zM514 384v-47q0 -15 -11 -26t-26.5 -11t-26.5 11t-11 26v94
q0 15 11 26t26.5 11t26.5 -11t11 -26v0v-47zM945 399h-47v100q0 6 -4.5 10.5t-10.5 4.5h-75q-6 0 -10.5 -4.5t-4.5 -10.5v-100h-18v32q0 21 -15.5 36.5t-37 15.5t-37 -15.5t-15.5 -36.5v-32h-18v100q0 6 -4.5 10.5t-10.5 4.5h-75q-6 0 -10.5 -4.5t-4.5 -10.5v-100h-18v32
q0 21 -15.5 36.5t-37 15.5t-37 -15.5t-15.5 -36.5v-32h-18v100q0 6 -4.5 10.5t-10.5 4.5h-75q-6 0 -10.5 -4.5t-4.5 -10.5v-100h-45q-6 0 -10.5 -4.5t-4.5 -10.5q0 -30 -21.5 -51.5t-51.5 -21.5t-51.5 21.5t-21.5 51.5t21.5 51.5t51.5 21.5q6 0 10.5 4.5t4.5 10.5t-4.5 10.5
t-10.5 4.5q-43 0 -73 -30t-30 -73t30 -73t73 -30q39 0 68 25t34 63h31v-100q0 -6 4.5 -10.5t10.5 -4.5h75q6 0 10.5 4.5t4.5 10.5v100h18v-32q0 -21 15.5 -36.5t37 -15.5t37 15.5t15.5 36.5v32h18v-100q0 -6 4.5 -10.5t10.5 -4.5h75q6 0 10.5 4.5t4.5 10.5v100h18v-32
q0 -21 15.5 -36.5t37.5 -15.5t37 15.5t15 36.5v32h18v-100q0 -6 4.5 -10.5t10.5 -4.5h75q6 0 10.5 4.5t4.5 10.5v100h47q6 0 10.5 4.5t4.5 10.5t-4.5 10.5t-10.5 4.5zM376 284h-45v200h45v-200zM476.5 315q-9.5 0 -16 6.5t-6.5 15.5v94q0 9 6.5 15.5t16 6.5t16 -6.5
t6.5 -15.5v-94q0 -9 -6.5 -15.5t-16 -6.5zM622 284h-45v200h45v-200zM723 315q-9 0 -16 6.5t-7 15.5v94q0 9 7 15.5t16 6.5t15.5 -6.5t6.5 -15.5v-94q0 -9 -6.5 -15.5t-15.5 -6.5zM868 284h-45v200h45v-200zM342 465v0q0 -6 4 -10.5t10.5 -4.5t11 4.5t4.5 10.5v0v0
q0 6 -4.5 10.5t-11 4.5t-10.5 -4.5t-4 -10.5v0zM464 431q0 -6 4.5 -10.5t11 -4.5t10.5 4.5t4 10.5t-4 10.5t-10.5 4.5t-11 -4.5t-4.5 -10.5zM712 431q0 -6 4.5 -10.5t10.5 -4.5t10.5 4.5t4.5 10.5t-4.5 10.5t-10.5 4.5t-10.5 -4.5t-4.5 -10.5zM588 465q0 -6 4.5 -10.5
t10.5 -4.5t10.5 4.5t4.5 10.5t-4.5 10.5t-10.5 4.5t-10.5 -4.5t-4.5 -10.5zM838 465v0q0 -6 4.5 -10.5t10.5 -4.5t10.5 4.5t4.5 10.5v0v0q0 6 -4.5 10.5t-10.5 4.5t-10.5 -4.5t-4.5 -10.5v0z" />
    <glyph glyph-name="Burger" unicode="&#xe66b;" 
d="M848 114q14 0 23.5 -10t9.5 -23v-41q0 -36 -25.5 -62t-61.5 -26h-563q-36 0 -62 26t-26 62v41q0 13 10 23t24 10h671zM346 40v41q0 13 9.5 23t23.5 10h-202q-14 0 -24 -10t-10 -23v-41q0 -36 26 -62t62 -26h202q-36 0 -61.5 26t-25.5 62zM882 597q0 -14 -10 -23.5
t-24 -9.5h-671q-14 0 -24 10t-10 23q0 91 64 155t155 64h301q90 0 154 -64q65 -64 65 -155zM313 597q0 91 64 155t155 64h-170q-91 0 -155 -64t-64 -155q0 -14 10 -23.5t24 -9.5h170q-14 0 -24 9.5t-10 23.5zM842 339v-78h-655v78h655zM248 339v-78h-61v78h61zM842 564v-78
h-655v78h655zM763 261v-5l-89 -89l-94 94h183zM248 567v-78h-61v78h61zM475 486v-5l-89 -89l-94 94h183zM842 261q30 0 52 -21.5t22 -52t-21.5 -52t-52.5 -21.5h-659q-31 0 -52.5 21.5t-21.5 52t21.5 52t52.5 21.5h397l94 -94l89 89v5h79zM842 486q30 0 52 -21.5t22 -52
t-21.5 -52t-52.5 -21.5h-659q-31 0 -52.5 21.5t-21.5 52t21.5 52t52.5 21.5h109l94 -94l89 89v5h367zM266 188q0 30 22 51.5t52 21.5h-157q-31 0 -52.5 -21.5t-21.5 -52t21.5 -52t52.5 -21.5h157q-30 0 -52 22q-22 21 -22 52zM266 413q0 41 37 63l-11 10h-109
q-31 0 -52.5 -21.5t-21.5 -52t21.5 -52t52.5 -21.5h157q-30 0 -52 21q-22 22 -22 53zM830.5 9q-6.5 0 -11.5 5t-5 12v34q0 7 5 11.5t11.5 4.5t11.5 -5t5 -11v-34q0 -7 -5 -12t-11.5 -5zM828 606q-14 0 -16 15q-7 48 -42 83q-10 10 -22 18q-6 4 -7 11t3 12.5t10.5 7
t12.5 -2.5q14 -10 26 -22q43 -43 52 -102q1 -7 -3 -12.5t-11 -6.5q-1 -1 -3 -1zM865 171q-7 0 -12 5t-5 12q0 2 -2 4q-1 2 -4 2q-7 0 -11.5 4.5t-4.5 11.5t4.5 12t11.5 5q16 0 27.5 -11.5t11.5 -27.5q0 -7 -4.5 -12t-11.5 -5zM865 396q-7 0 -12 5t-5 12q0 2 -2 4q-1 2 -4 2
q-7 0 -11.5 4.5t-4.5 11.5t4.5 12t11.5 5q16 0 27.5 -11.5t11.5 -28.5q0 -6 -4.5 -11t-11.5 -5zM702 755q0 -7 5 -11.5t12 -4.5t12 4.5t5 11.5t-5 12t-12 5t-12 -5t-5 -12zM857 277v46q32 6 53.5 31t21.5 58.5t-21.5 58.5t-53.5 31v46q17 3 29 17t12 32q0 98 -69 166.5
t-166 68.5h-301q-98 0 -166.5 -68.5t-68.5 -166.5q0 -18 11.5 -32t29.5 -17v-46q-32 -6 -54 -31t-22 -58.5t21.5 -58.5t54.5 -31v-46q-32 -6 -54 -31t-22 -58q0 -51 44 -78q-10 -13 -10 -29v-41q0 -43 31 -73.5t74 -30.5h563q43 0 73.5 30.5t30.5 73.5v41q0 16 -10 29
q20 12 32 32.5t12 45.5q0 33 -21.5 58t-53.5 31zM201 278v44h622v-44h-622zM723 245l-49 -50l-50 50h99zM201 503v44h622v-44h-622zM436 470l-50 -50l-49 50h99zM160 597q0 84 59 143t143 59h301q83 0 142.5 -59t59.5 -143q0 -7 -5 -12t-12 -5h-671q-7 0 -12 5t-5 12z
M126 412.5q0 23.5 16.5 40.5t40.5 17h107l84 -85q5 -5 12 -5t12 5l85 85h359q24 0 40.5 -17t16.5 -40.5t-16.5 -40t-40.5 -16.5h-659q-24 0 -40.5 16.5t-16.5 40zM848 97q7 0 12 -4.5t5 -11.5v-41q0 -30 -21 -50.5t-50 -20.5h-563q-29 0 -50 20.5t-21 50.5v41q0 7 5 11.5
t12 4.5h671zM842 131h-659q-24 0 -40.5 16.5t-16.5 40t16.5 40.5t40.5 17h394l85 -85q5 -5 12 -5t12 5l84 85h72q24 0 40.5 -17t16.5 -40.5t-16.5 -40t-40.5 -16.5zM333 748q0 -7 4.5 -12t11.5 -5t12 5t5 12t-5 11.5t-12 4.5t-11.5 -4.5t-4.5 -11.5zM659 748q0 -7 4.5 -12
t11.5 -5t12 5t5 12t-5 11.5t-12 4.5t-11.5 -4.5t-4.5 -11.5zM441 748q0 -7 5 -12t12 -5t12 5t5 12t-5 11.5t-12 4.5t-12 -4.5t-5 -11.5zM550 748q0 -7 5 -12t12 -5t11.5 5t4.5 12t-4.5 11.5t-11.5 4.5t-12 -4.5t-5 -11.5z" />
    <glyph glyph-name="Biscuit" unicode="&#xe66c;" 
d="M709 402q27 0 46.5 -19t19.5 -46.5t-19.5 -46.5t-46.5 -19t-46 19t-19 46.5t19 46.5t46 19zM392.5 271q22.5 0 38.5 -16t16 -38.5t-16 -38t-38.5 -15.5t-38 15.5t-15.5 38t15.5 38.5t38 16zM417.5 599q18.5 0 31.5 -13t13 -31.5t-13 -31.5t-31.5 -13t-31.5 13t-13 31.5
t13 31.5t31.5 13zM512.5 813q116.5 0 215 -57.5t156 -156.5t57.5 -215t-57.5 -215t-156 -156.5t-215 -57.5t-215.5 57.5t-156 156.5t-57 215t57 215t156 156.5t215.5 57.5zM775 336.5q0 27.5 -19.5 46.5t-46.5 19t-46 -19t-19 -46.5t19 -46.5t46 -19t46.5 19t19.5 46.5z
M462 554.5q0 18.5 -13 31.5t-31.5 13t-31.5 -13t-13 -31.5t13 -31.5t31.5 -13t31.5 13t13 31.5zM447 216.5q0 22.5 -16 38.5t-38.5 16t-38 -16t-15.5 -38.5t15.5 -38t38 -15.5t38.5 15.5t16 38zM292 384q0 149 91.5 265t232.5 151q-51 12 -104 12q-116 0 -215 -57t-156 -156
t-57 -215.5t57 -215t156 -156t215 -57.5q53 0 104 13q-141 35 -232.5 151t-91.5 265zM855 221q-3 0 -7 1q-7 3 -10 10t0 14q28 66 28 138q0 98 -50 181.5t-136 129.5q-6 4 -8.5 11.5t1 14t11 8.5t14.5 -1q95 -52 150 -144t55 -200q0 -79 -31 -152q-5 -11 -17 -11zM596 741.5
q0 -7.5 5.5 -13t13 -5.5t13 5.5t5.5 13t-5.5 13t-13 5.5t-13 -5.5t-5.5 -13zM512 831q-91 0 -173.5 -35.5t-142.5 -95.5t-95.5 -142.5t-35.5 -173.5t35.5 -173.5t95.5 -142.5t142.5 -95.5t173.5 -35.5t174 35.5t142.5 95.5t95 142.5t35.5 173.5t-35.5 173.5t-95 142.5
t-142.5 95.5t-174 35.5zM512.5 -26q-111.5 0 -206 55t-149.5 149.5t-55 205.5t55 205.5t149.5 149.5t206 55t206 -55t149.5 -149.5t55 -205.5t-55 -205.5t-149.5 -149.5t-206 -55zM418 617q-26 0 -44.5 -18t-18.5 -44t18.5 -44.5t44.5 -18.5t44.5 18.5t18.5 44.5t-18.5 44
t-44.5 18zM418 529q-11 0 -18.5 7.5t-7.5 18t7.5 18.5t18.5 8t18.5 -8t7.5 -18.5t-7.5 -18t-18.5 -7.5zM709.5 420q-34.5 0 -59.5 -24.5t-25 -59t25 -59t59.5 -24.5t59 24.5t24.5 59t-24.5 59t-59 24.5zM709.5 289q-19.5 0 -33.5 14t-14 33.5t14 33.5t33.5 14t33.5 -14
t14 -33.5t-14 -33.5t-33.5 -14zM393 289q-30 0 -51.5 -21t-21.5 -51t21.5 -51.5t51.5 -21.5t51 21.5t21 51.5t-21 51t-51 21zM392.5 181q-14.5 0 -25 10.5t-10.5 25.5t10.5 25t25 10t25 -10t10.5 -25t-10.5 -25.5t-25 -10.5zM675 580v0q0 -8 5.5 -13.5t13 -5.5t13 5.5
t5.5 13.5v0v0q0 7 -5.5 12.5t-13 5.5t-13 -5.5t-5.5 -12.5v0zM266 421.5q0 -7.5 5.5 -13t13 -5.5t13 5.5t5.5 13t-5.5 13t-13 5.5t-13 -5.5t-5.5 -13zM552 171v0q0 -8 5.5 -13.5t13 -5.5t13 5.5t5.5 13.5v0v0q0 7 -5.5 12.5t-13 5.5t-13 -5.5t-5.5 -12.5v0z" />
    <glyph glyph-name="Burrito" unicode="&#xe66d;" 
d="M692 -44h-360q110 41 180 137q70 -96 180 -137zM598 727q23 -25 30 -58q-14 -8 -28 -18q-1 0 -1.5 1t-1 1t-0.5 1q-1 1 -2 1q-34 35 -83 35q-50 0 -85 -37l-2 -2q-13 10 -28 18q7 33 30 58q25 26 59 33q13 3 26 3t26 -3q33 -7 57 -31zM600 651q-51 -37 -88 -87
q-37 50 -87 87l1 1l1 1q35 37 85 37q49 0 83 -35l3 -2q0 -1 2 -2zM714 767l-21 -66q-35 -13 -65 -32q-7 33 -30 58q-1 0 -1.5 0.5t-0.5 1.5q-25 24 -58 31l46 50l28 -26l37 28l16 -49zM441 810l45 -50q-35 -8 -59 -33q-23 -25 -30 -58q-31 19 -65 32l-21 66l48 -4l17 49
l36 -28zM628 669q31 19 64 32v-745q-110 41 -180 137q77 105 77 235.5t-77 235.5q37 50 88 87q14 10 28 18zM425 651q50 -37 87 -87q77 -105 77 -235.5t-77 -235.5q-70 -96 -180 -137v745q34 -13 65 -32q13 -8 28 -18zM415 657q-7 6 -18 12q-31 19 -65 32v-745q44 17 83 43
v658zM542.5 313q-6.5 0 -11 4.5t-4.5 10.5q0 104 -57 189q-9 13 3.5 21.5t21.5 -4.5q63 -93 63 -206q0 -6 -4.5 -10.5t-11 -4.5zM646.5 132q-6.5 0 -11 4.5t-4.5 10.5v373q0 6 4.5 10.5t11 4.5t11 -4.5t4.5 -10.5v-373q0 -6 -4.5 -10.5t-11 -4.5zM646.5 580q-6.5 0 -11 4.5
t-4.5 10.5v29q0 6 4.5 10.5t11 4.5t11 -4.5t4.5 -10.5v-29q0 -6 -4.5 -10.5t-11 -4.5zM434 568v0q0 -7 4.5 -11.5t11 -4.5t11 4.5t4.5 11.5v0v0q0 6 -4.5 10.5t-11 4.5t-11 -4.5t-4.5 -10.5v0zM518 651v0q0 -7 4.5 -11.5t11 -4.5t10.5 4.5t4 11.5v0v0q0 6 -4 10.5t-10.5 4.5
t-11 -4.5t-4.5 -10.5v0zM636 727.5q0 -6.5 4.5 -11t11 -4.5t11 4.5t4.5 11t-4.5 11t-11 4.5t-11 -4.5t-4.5 -11zM726 776.5q-5 6.5 -13 6.5l-37 -3l-13 37q-2 8 -9.5 10t-14.5 -3l-26 -20l-19 17q-5 5 -11 4.5t-11 -5.5l-39 -43q-10 1 -20.5 1t-20.5 -1l-40 43
q-4 5 -10.5 5.5t-11.5 -4.5l-19 -17l-26 20q-6 5 -13.5 3t-10.5 -10l-12 -37l-37 3q-8 0 -13 -6t-3 -14l21 -65v-742q0 -7 4.5 -11.5t10.5 -4.5h361q6 0 10.5 4.5t4.5 11.5v743l20 64q3 7 -2 13.5zM584 788l18 -16q9 -8 19 -1l20 16l9 -29q4 -11 16 -10l26 2l-12 -38
q-22 -8 -43 -20q-10 26 -28 45l-3 3q-18 17 -41 27zM500 555q74 -101 74 -226.5t-74 -226.5q-60 -82 -153 -123v699q93 -41 153 -123zM512 589q-28 35 -64 63q28 23 64 23t64 -23q-35 -28 -64 -63zM512 68q48 -59 113 -97h-226q66 38 113 97zM531 93q74 106 74 235.5
t-74 235.5q59 75 146 114v-699q-87 38 -146 114zM585 718l2 -2q16 -17 23 -40q-6 -3 -9 -5q-37 34 -88.5 34t-89.5 -34q-5 3 -8 5q7 23 23 40q30 32 74 32q43 0 73 -30zM358 748q12 -1 16 10l9 29l20 -16q10 -8 20 1l17 16l19 -21q-25 -10 -43 -30q-19 -19 -28 -45
q-21 12 -44 20l-12 38zM611 555q0 -6 4.5 -10.5t11 -4.5t10.5 4.5t4 10.5t-4 10.5t-10.5 4.5t-11 -4.5t-4.5 -10.5zM402 519.5q0 -6.5 4.5 -11t11 -4.5t10.5 4.5t4 11t-4 10.5t-10.5 4t-11 -4t-4.5 -10.5zM464 404.5q0 -6.5 4.5 -11t11 -4.5t11 4.5t4.5 11t-4.5 11t-11 4.5
t-11 -4.5t-4.5 -11zM466 251.5q0 -6.5 4.5 -11t11 -4.5t11 4.5t4.5 11t-4.5 11t-11 4.5t-11 -4.5t-4.5 -11zM402 137v0q0 -7 4 -11.5t10.5 -4.5t11 4.5t4.5 11.5v0v0q0 6 -4.5 10.5t-11 4.5t-10.5 -4.5t-4 -10.5v0zM610 102v0q0 -6 4.5 -10.5t11 -4.5t11 4.5t4.5 10.5v0v0
q0 6 -4.5 10.5t-11 4.5t-11 -4.5t-4.5 -10.5v0z" />
    <glyph glyph-name="Broccoli" unicode="&#xe66e;" 
d="M685 369q-10 -27 -20 -56q-62 -182 -62 -353h-181q0 171 -62 353q-59 171 -162 311q46 -73 80 -122.5t52.5 -72.5t31 -34.5t17 -8.5t9.5 4q29 -38 74 -53q22 -137 24 -292l-13 210q2 -15 13 -25t26.5 -10t26.5 10t13 25q1 12 2 19q19 159 59 304q-18 -202 7 -202
q6 0 16 14q22 -18 49 -21zM516 234l-10 -17q4 0 12 2q37 10 62.5 39.5t30.5 68.5q1 9 1 10q33 11 58 35q-18 6 -34 18q-29 -38 -74 -53q-17 -108 -19 -230l9 148q-1 -5 -3.5 -7t-7.5 -3.5t-7 -3.5q-6 -3 -18 -6v-1zM685 369q-27 3 -49 21q-29 -38 -74 -53q-24 -8 -50 -8
q-25 0 -50 8q-45 15 -74 53q-21 -18 -49 -21q-6 -1 -13 -1h-1q-7 -35 -34 -58t-64 -23q-41 0 -69.5 28.5t-28.5 69.5q0 26 12 48q-27 17 -43.5 45.5t-16.5 62.5q0 52 37 89t89 37q8 0 18 -2q7 46 42.5 76t81.5 30q38 0 70 -21q13 26 37.5 42t54.5 16t55 -16.5t38 -43.5
q32 23 71 23q47 0 82 -30t43 -76q8 2 17 2v0q52 0 89 -37t37 -89q0 -34 -16 -62.5t-43 -45.5q12 -22 12 -47q0 -41 -29 -70t-70 -29q-36 0 -63.5 23t-33.5 58h-2q-5 0 -13 1zM279 385q0 26 12 48q-27 17 -43 45.5t-16 61.5q0 53 36.5 89.5t89.5 36.5q7 0 17 -1q8 45 43 75.5
t81 30.5q39 0 70 -21q7 13 17 25q-30 33 -75 33q-30 0 -54.5 -16t-37.5 -43q-32 22 -70 22q-46 0 -81.5 -30.5t-42.5 -75.5q-8 1 -17 1h-1q-52 0 -89 -36.5t-37 -89.5q0 -33 16.5 -61.5t43.5 -45.5q-13 -22 -13 -48q0 -41 29 -70t70 -29q46 0 75 35q-23 28 -23 64zM413 304
q22 -18 49 -27q3 -2 9 -3q-20 159 -59 304q17 -202 -8 -201q-6 0 -16 14l10 -12l-2 2v0q-1 0 -2 1.5t-1 2.5h-1v0q0 1 -4 5q-21 -18 -49 -21q11 -27 21 -56q62 -182 62 -353h50q0 166 -59 344zM685 369q-10 -27 -20 -56q-15 6 -29 16q-29 -37 -74 -52q-2 -1 -8 -3
q19 159 59 304q-18 -202 6 -202q7 0 17 14q22 -18 49 -21zM436 525q-9 0 -13 8q-1 1 -1.5 1t-0.5 -1q-12 -11 -22.5 0.5t0.5 21.5q9 10 22 10q19 0 29 -16q8 -14 -6 -22q-4 -2 -8 -2v0zM563 496v0q-7 0 -11.5 4.5t-4.5 10.5v0q0 6 -4 10t-10 4v0q-6 0 -10.5 4.5t-4.5 11.5v0
v0q0 6 4.5 11t10.5 5v0q19 0 32 -13.5t13 -32.5q0 -6 -4.5 -10.5t-10.5 -4.5zM834 334q-7 0 -11 5q-11 11 -1 22q11 10 11 24q0 9 -5 17l-9 17q-8 14 6 21.5t21 -6.5l9 -16q9 -15 9 -33q0 -27 -19 -46q-5 -5 -11 -5zM888 491q-4 0 -7 1q-6 3 -8 9t0 12q7 13 7 27
q0 33 -27 52q-13 9 -4.5 21.5t21.5 4.5q41 -28 41 -77q0 -22 -9 -41q-5 -9 -14 -9zM752 642q-13 0 -15 13q-3 19 -16.5 33t-32.5 18q-6 1 -9.5 6.5t-2 12t7 10t11.5 1.5q28 -6 48 -26.5t25 -49.5q1 -6 -3 -11.5t-10 -6.5h-3zM560 713q-10 0 -14 9q-10 22 -35 22
q-6 0 -11 4.5t-5 11t5 11.5t11 5q20 0 37.5 -11.5t25.5 -29.5q3 -6 0.5 -12t-8.5 -9q-3 -1 -6 -1zM406 685q-5 0 -9 3l-13 9q-16 10 -35 10q-6 0 -11 -1q-6 -1 -11.5 2.5t-6.5 10t2.5 12t9.5 6.5q9 1 17 1q29 0 52 -15l13 -9q13 -9 5 -22q-5 -7 -13 -7zM802 619v0
q0 -7 4.5 -11.5t11 -4.5t11 4.5t4.5 11.5v0v0q0 6 -4.5 10.5t-11 4.5t-11 -4.5t-4.5 -10.5v0zM533 605q-29 0 -53 -17q-24 25 -59 25q-33 0 -56.5 -23.5t-23.5 -57t23.5 -57t56.5 -23.5q7 0 11.5 4.5t4.5 11t-4.5 11t-11.5 4.5q-20 0 -34.5 14.5t-14.5 35t14.5 35t34.5 14.5
q29 0 43 -25q4 -6 11.5 -7t13.5 4q18 19 44 19t44 -18t18 -44q0 -6 4.5 -10.5t11 -4.5t11 4.5t4.5 10.5q0 39 -27 66.5t-66 27.5zM959 541q0 58 -41.5 99.5t-100.5 41.5h-5q-12 46 -50 75t-87 29q-35 0 -66 -16q-16 25 -42 39.5t-56 14.5q-29 0 -55.5 -14.5t-42.5 -38.5
q-30 15 -64 15q-48 0 -86 -29t-50 -75h-6q-58 0 -99.5 -41.5t-41.5 -99.5q0 -70 55 -113q-8 -20 -8 -43v0q0 -47 33.5 -80.5t80.5 -33.5q35 0 64 19.5t42 50.5q73 -195 73 -381v0q0 -6 4.5 -11t11.5 -5v0h181v0q6 0 10.5 5t4.5 11v0q0 187 73 381q14 -31 42.5 -50.5
t63.5 -19.5v0q47 0 81 33.5t34 80.5q0 23 -9 43q56 42 56 113zM587 -24h-150q-3 188 -77 382q14 4 26 11q26 -29 62 -43q5 -36 9 -73q3 -21 18.5 -35t36.5 -14t37 14t18 35q4 38 10 73q36 14 62 43q12 -7 25 -12q-73 -193 -77 -381zM481 316q16 -3 31.5 -3t31.5 3
q-5 -31 -8 -59q-1 -10 -8 -16t-16 -6t-15.5 6t-7.5 16q-4 30 -8 59zM875 447q-12 -8 -5 -21q10 -19 10 -41q0 -34 -24 -58.5t-59 -24.5q-30 0 -53 19.5t-29 49.5q-2 13 -15 13h-2q-29 0 -52 18q-5 4 -11.5 3.5t-10.5 -5.5q-43 -56 -112 -56t-111 56q-4 5 -10.5 5.5
t-12.5 -3.5q-23 -18 -52 -18h-1q-14 0 -16 -13q-5 -30 -28 -49.5t-54 -19.5q-34 0 -58.5 24.5t-24.5 58.5q0 22 10 41q8 13 -5 21q-24 15 -38 40t-14 53q0 46 32.5 78.5t77.5 32.5q7 0 16 -1q6 -1 11 2.5t6 10.5q7 40 37.5 66t71.5 26q34 0 61 -18q6 -4 13 -2t10 8
q11 22 32 35.5t46 13.5t46.5 -13.5t31.5 -36.5q3 -7 10 -9h4q5 0 9 2q29 20 63 20q41 0 72 -26t37 -66q1 -6 6 -10t12 -3q8 1 15 1q46 0 78.5 -32.5t32.5 -77.5q0 -29 -14 -54t-39 -40z" />
    <glyph glyph-name="Candy" unicode="&#xe66f;" 
d="M941 547v-113q-52 0 -93.5 -29.5t-58.5 -76.5q-11 27 -11 56q0 67 48 115t115 48zM236 441q10 -28 10 -57q0 -67 -47.5 -115t-115.5 -48v113q52 0 93.5 29.5t59.5 77.5zM236 441q-18 -48 -59.5 -77.5t-93.5 -29.5v213q52 0 93.5 -29.5t59.5 -76.5zM941 434v-213
q-52 0 -93.5 29.5t-58.5 77.5q17 47 58.5 76.5t93.5 29.5zM425 636v-504q-79 28 -129 97t-50 155t50 155t129 97zM335 384q0 59 23.5 110.5t66.5 89.5v52q-79 -28 -129 -97t-50 -155t49.5 -155t129.5 -97v52q-43 38 -66.5 89.5t-23.5 110.5zM778 384q0 -86 -49.5 -155
t-128.5 -97v504q79 -28 128.5 -97t49.5 -155zM600 636v-504q-43 -14 -88 -14t-87 14v504q42 14 87 14t88 -14zM667 217q-6 0 -11 5q-12 11 -1 23q57 58 57 139q0 68 -42 123q-5 5 -4 11.5t6.5 11t12 3.5t11.5 -6q48 -63 48 -143q0 -94 -65 -162q-5 -5 -12 -5zM645.5 538
q-6.5 0 -11.5 4.5t-5 11.5t5 11.5t11.5 4.5t11.5 -4.5t5 -11.5t-5 -11.5t-11.5 -4.5zM466 579q-14 0 -16 12q-2 7 1.5 13t10.5 7q42 9 84 3q6 -1 10 -6.5t3.5 -12t-6 -10.5t-12.5 -4q-37 6 -72 -2h-3zM892 262q-7 0 -11.5 4.5t-4.5 11.5v102q0 7 4.5 11.5t11.5 4.5t12 -4.5
t5 -11.5v-102q0 -7 -5 -11.5t-12 -4.5zM892 455q-7 0 -11.5 5t-4.5 12v16q0 7 4.5 11.5t11.5 4.5t12 -4.5t5 -11.5v-16q0 -7 -5 -12t-12 -5zM958 547q0 7 -5 11.5t-12 4.5q-51 0 -93.5 -26.5t-64.5 -69.5q-27 88 -102 144t-169 56t-168.5 -56t-101.5 -144q-23 43 -65.5 69.5
t-93.5 26.5q-7 0 -11.5 -4.5t-4.5 -11.5v-326q0 -7 4.5 -11.5t11.5 -4.5q51 0 93.5 26.5t65.5 69.5q27 -88 101.5 -144t168.5 -56t169 56t102 144q22 -43 64.5 -69.5t93.5 -26.5q7 0 12 4.5t5 11.5v326zM925 529v-80q-39 -3 -73 -23t-57 -51v9q0 56 37.5 97.5t92.5 47.5z
M218 440q-15 -36 -47 -60t-71 -28v177q39 -4 71 -28t47 -61zM100 239v80q38 3 72.5 23t56.5 51v-9q0 -56 -37 -97.5t-92 -47.5zM262 384q0 74 40.5 135.5t105.5 91.5v-454q-65 30 -105.5 91.5t-40.5 135.5zM441 144v480q35 10 71.5 10t70.5 -10v-480q-35 -10 -71 -10t-71 10
zM616 157v454q66 -30 106 -91.5t40 -135.5t-40 -135.5t-106 -91.5zM806 328q16 36 48 60t71 28v-177q-40 4 -71.5 28t-47.5 61z" />
    <glyph glyph-name="Cake" unicode="&#xe670;" 
d="M736 474h-3h3zM942 675v-62h-117v-114v0q0 -12 -6 -23q-4 -6 -9 -11q-13 -12 -31 -12t-31 12q-15 14 -15 34v63v-131q0 -19 -13.5 -32.5t-32.5 -13.5t-32.5 13.5t-13.5 32.5v182h-204v-163q0 -19 -13 -32t-31.5 -13t-31.5 13t-13 32v163h-77v62h671zM271 332v-146h671
v-140h-859v624q0 22 15 37t36 15h85q21 0 36 -15t15 -37v-196h78v-24q0 -19 13 -32t31.5 -13t31.5 13t13 32v24h204v-43q0 -19 13.5 -32.5t32.5 -13.5t32.5 13.5t13.5 32.5v68q0 -20 15 -34q13 -12 31 -12t31 12q5 5 9 11l3 -2h120v-142h-671zM348 613v-139h-77v139h77z
M942 613v-139h-120l-3 2q6 11 6 23v0v114h117zM437 613h204v-139h-204v139zM942 332v-146h-671v146h671zM153 722v-676h-70v624q0 22 15 37t36 15h4.5h9.5h5zM890.5 512q-7.5 0 -12.5 5t-5 13v41q0 7 5 12.5t12.5 5.5t12.5 -5.5t5 -12.5v-41q0 -8 -5 -13t-12.5 -5z
M890.5 220q-7.5 0 -12.5 5t-5 12v42q0 7 5 12.5t12.5 5.5t12.5 -5.5t5 -12.5v-42q0 -7 -5 -12t-12.5 -5zM890.5 74q-7.5 0 -12.5 5t-5 12v42q0 7 5 12t12.5 5t12.5 -5t5 -12v-42q0 -7 -5 -12t-12.5 -5zM890.5 360q-7.5 0 -12.5 5t-5 12v42q0 7 5 12.5t12.5 5.5t12.5 -5.5
t5 -12.5v-42q0 -7 -5 -12t-12.5 -5zM786 484q-7 0 -12 5.5t-5 12.5v97q0 7 5 12.5t12 5.5t12.5 -5.5t5.5 -12.5v-97q0 -7 -5.5 -12.5t-12.5 -5.5zM692 415q-7 0 -12 5t-5 12v98q0 7 5 12t12 5t12.5 -5t5.5 -12v-98q0 -7 -5.5 -12t-12.5 -5zM400 446q-7 0 -12 5t-5 12v46
q0 7 5 12t12 5t12 -5t5 -12v-46q0 -7 -5 -12t-12 -5zM942 692h-658q-7 21 -24.5 34t-40.5 13h-85q-28 0 -48.5 -20t-20.5 -49v-624q0 -7 5 -12t13 -5h859q7 0 12 5t5 12v629q0 7 -5 12t-12 5zM825 631q-7 0 -12 -5t-5 -13v-114q0 -12 -10 -21q-8 -7 -19 -7t-19 7
q-10 9 -10 21v63q0 7 -5 12t-12 5t-12 -5t-5 -12v-131q0 -12 -8.5 -20.5t-20.5 -8.5t-20.5 8.5t-8.5 20.5v182q0 7 -5 12.5t-12 5.5h-204q-7 0 -12 -5.5t-5 -12.5v-163q0 -11 -8 -19t-19.5 -8t-19.5 8t-8 19v163q0 8 -5 13t-12 5h-60v26h636v-26h-99zM842 596h83v-104h-83
q1 4 1 7v97h-1zM623 492h-168v104h168v-104zM288 596h42v-104h-42v104zM100 64v606q0 14 10 24t24 10h85q14 0 24 -10t10 -24v-196q0 -7 5 -12t12 -5h60v-7q0 -26 18.5 -44t44 -18t44 18t18.5 44v7h168v-26q0 -26 18.5 -44.5t45 -18.5t45 18.5t18.5 44.5v12q13 -7 29 -7
q24 0 42 16q15 14 22 32l81 -27v-108h-653q-8 0 -13 -5t-5 -12v-146q0 -8 5 -13t13 -5h653v-104h-824v0zM924 314v-111h-636v111h636zM832 410v0q0 -7 5 -12t12 -5t12 5t5 12v0v0q0 7 -5 12.5t-12 5.5t-12 -5.5t-5 -12.5v0zM118 617q0 -7 5 -12t12.5 -5t12.5 5t5 12t-5 12.5
t-12.5 5.5t-12.5 -5.5t-5 -12.5zM177 579q0 -7 5 -12.5t12.5 -5.5t12.5 5.5t5 12.5t-5 12t-12.5 5t-12.5 -5t-5 -12zM116 414v0q0 -7 5 -12t12 -5t12 5t5 12v0q0 8 -5 13t-12 5t-12 -5t-5 -13zM171 251v0q0 -7 5 -12t12 -5t12 5t5 12v0v0q0 8 -5 13t-12 5t-12 -5t-5 -13v0z
M194 124q0 -7 5 -12.5t12 -5.5t12 5.5t5 12.5t-5 12t-12 5t-12 -5t-5 -12zM456 94q0 -7 5 -12t12 -5t12 5t5 12v0q0 8 -5 13t-12 5t-12 -5t-5 -13v0zM643 135v0q0 -7 5 -12t12 -5t12.5 5t5.5 12v0v0q0 8 -5.5 13t-12.5 5t-12 -5t-5 -13v0z" />
    <glyph glyph-name="Burger1" unicode="&#xe671;" 
d="M865 456v-83h-701v83h701zM246 456v-83h-82v83h82zM780 373v-5l-95 -95l-101 100h196zM865 373q32 0 55.5 -23t23.5 -55.5t-23.5 -55.5t-55.5 -23h-705q-33 0 -56 23t-23 55q0 33 23 56t56 23h424l101 -100l95 95v5h85zM871 216q15 0 25.5 -10.5t10.5 -25.5v-44
q0 -38 -27.5 -65.5t-66.5 -27.5h-602q-38 0 -65.5 27.5t-27.5 65.5v44q0 15 10.5 25.5t24.5 10.5h718zM907 492q0 -15 -10.5 -25.5t-25.5 -10.5h-718q-14 0 -24.5 10.5t-10.5 25.5q0 97 68 165.5t165 68.5h322q97 0 165.5 -68.5t68.5 -165.5zM334 136v44q0 15 10.5 25.5
t25.5 10.5h-217q-14 0 -24.5 -10.5t-10.5 -25.5v-44q0 -38 27.5 -65.5t65.5 -27.5h217q-39 0 -66.5 27.5t-27.5 65.5zM299 492q0 97 68.5 165t165.5 68h-182q-96 0 -164.5 -68t-68.5 -165q0 -15 10.5 -25.5t24.5 -10.5h182q-15 0 -25.5 10.5t-10.5 25.5zM249 294q0 45 39 68
l-11 11h-117q-33 0 -56 -23t-23 -55.5t23 -55.5t56 -23h168q-32 0 -55.5 23t-23.5 55zM856 108q-7 0 -12.5 5.5t-5.5 12.5v36q0 8 5.5 13t12.5 5t12.5 -5t5.5 -13v-36q0 -7 -5.5 -12.5t-12.5 -5.5zM854 504q-15 0 -18 15q-8 51 -45 89q-11 11 -23 19q-6 4 -7.5 11.5
t2.5 13.5t11.5 7.5t13.5 -3.5q15 -10 28 -23q46 -46 56 -109q1 -7 -3.5 -13t-11.5 -7h-3zM892.5 279q-7.5 0 -12.5 5t-5 12q0 3 -2 5t-5 2q-7 0 -12 5t-5 12.5t5 12.5t12 5q18 0 30 -12t12 -30q0 -7 -5 -12t-12.5 -5zM719 663v0q0 -8 5 -13t12.5 -5t13 5t5.5 13v0v0
q0 7 -5.5 12t-13 5t-12.5 -5t-5 -12v0zM961 294q0 36 -23 63t-58 33v49q19 3 32 18t13 35q0 104 -74 177.5t-178 73.5h-322q-104 0 -177.5 -73.5t-73.5 -177.5q0 -20 12.5 -35t31.5 -18v-49q-34 -6 -57.5 -33t-23.5 -63q0 -25 13 -47t34 -35q-10 -15 -10 -32v-44
q0 -46 32.5 -78.5t78.5 -32.5h602q46 0 79 32.5t33 78.5v44q0 17 -11 32q22 13 34.5 34.5t12.5 47.5zM180 391v47h665v-47h-665zM742 355l-57 -57l-58 57h115zM135 492q0 89 63.5 152.5t152.5 63.5h322q90 0 153 -63.5t63 -152.5q0 -8 -5 -13t-13 -5h-718q-7 0 -12.5 5
t-5.5 13zM871 198q8 0 13 -5.5t5 -12.5v-44q0 -31 -22.5 -53.5t-53.5 -22.5h-602q-31 0 -53.5 22.5t-22.5 53.5v44q0 7 5.5 12.5t12.5 5.5h718zM865 233h-705q-25 0 -43 18t-18 43.5t18 43t43 17.5h417l95 -95q5 -5 12.5 -5t12.5 5l95 95v0h73q25 0 43 -18t18 -43t-18 -43
t-43 -18zM320 653v0q0 -8 5.5 -13t12.5 -5t12.5 5t5.5 13v0v0q0 7 -5.5 12.5t-12.5 5.5t-12.5 -5.5t-5.5 -12.5v0zM669 653v0q0 -8 5 -13t12.5 -5t12.5 5t5 13v0v0q0 7 -5 12.5t-12.5 5.5t-12.5 -5.5t-5 -12.5v0zM436 652.5q0 -7.5 5.5 -12.5t13 -5t12.5 5t5 12.5t-5 13
t-12.5 5.5t-13 -5.5t-5.5 -13zM553 653v0q0 -8 5 -13t12.5 -5t12.5 5t5 13v0v0q0 7 -5 12.5t-12.5 5.5t-12.5 -5.5t-5 -12.5v0z" />
    <glyph glyph-name="Candy1" unicode="&#xe672;" 
d="M725 655l-94 -129q-5 3 -8 6q-19 19 -19 46v18q0 15 -4 29l82 113q30 -37 43 -83zM536 817l32 -147q-23 19 -54 19h-2q-17 0 -32 -6l-28 126q28 9 60 9q11 0 24 -1zM420 627l4 -2q-4 -13 -4 -28v-87l-125 125q9 45 34 83zM420 344v-117l-128 128v118zM420 69v-55
q0 -26 -18 -44l-110 110v117zM733 597v-19q0 -27 -19 -45.5t-45 -18.5v0q-21 0 -38 12l94 129q8 -28 8 -58zM682 738l-82 -114q-9 28 -32 46l-32 147q88 -10 146 -79zM452 809l28 -125q-42 -16 -56 -59l-4 2l-91 91q45 69 123 91zM420 510v-166l-128 129v121q0 20 3 40z
M420 227v-158l-128 128v158zM402 -30q-19 -20 -46 -20t-45.5 19t-18.5 45v66zM679 766q-69 68 -167 68h-2q-97 0 -166 -70.5t-69 -169.5v-580q0 -33 24 -56.5t57 -23.5t57 23.5t24 56.5v583q0 32 22.5 54t54.5 22q31 -1 52.5 -23.5t21.5 -53.5v-18q0 -34 23.5 -57.5
t57 -23.5t57 23.5t23.5 57.5v19q1 99 -70 169zM629 551q-8 12 -8 27v18q0 12 -3 25l64 89q16 -24 25 -51zM661 737l-58 -80q-8 12 -20 22l-26 117q57 -13 99 -54q1 -2 5 -5zM308 87v70l96 -95v-48q0 -10 -4 -19zM308 204v111l96 -95v-111zM308 362v71l96 -96v-70zM308 480
v118l95 -95v-118zM404 597v-47l-91 90q6 27 19 51l74 -73q-2 -10 -2 -21zM308 14v26l68 -69q-9 -4 -20 -4q-20 0 -34 14t-14 33zM436 675q-21 -21 -29 -50l-56 95q35 47 89 68l21 -95q-14 -7 -25 -18zM493 704l-21 93q18 4 38 4h2h10l22 -100q-14 5 -29 5q-11 0 -22 -2z
M716 578q0 -20 -14 -34t-33 -14q-6 0 -13 2l59 82q1 -10 1 -17v-19v0zM369 9v0q-7 0 -12 5t-5 12v0v517v0q0 7 5 12t12 5v0v0q7 0 12 -5t5 -12v0v-517v0q0 -7 -5 -12t-12 -5v0zM682 581v0q-7 0 -12 4.5t-5 11.5v0q0 21 -5 40q-9 32 -30 57q-40 48 -102 55q-8 1 -16 1h-1
q-7 0 -12 5t-5 11.5t5 11.5t11 5h2q11 0 20 -1q75 -8 124 -66q25 -31 36 -70q6 -24 6 -49q0 -7 -4.5 -11.5t-11.5 -4.5zM369 581v0q-7 0 -12 4.5t-5 11.5v0v0q0 7 5 12t12 5v0v0q7 0 12 -5t5 -12v0q0 -7 -5 -11.5t-12 -4.5z" />
    <glyph glyph-name="Carrot" unicode="&#xe673;" 
d="M512 485q-42 1 -76 -14q15 84 -62 229q64 -28 101 -93q15 -26 24.5 -56.5t10.5 -48.5zM650 700q-1 -3 -4 -8.5t-11 -21.5t-14.5 -31.5t-15 -38.5t-12 -43t-6.5 -44t2 -42q-10 4 -21.5 7t-21 4.5t-17.5 2t-12 0.5h-5q4 62 38 123q37 64 100 92zM550 608
q-15 -27 -24.5 -57.5t-11.5 -47.5l-2 -18q-3 62 -37 123q-1 14 -0.5 37t10 79t27.5 94q19 -38 28 -90.5t10 -86.5v-33zM512 485q42 1 77 -14q47 -21 47 -65q0 -47 -20 -141q-18 -90 -45.5 -176.5t-58.5 -138.5q-39 66 -75 194q-32 114 -44 209q-4 32 -4 53q0 44 47 65
q15 7 34 10.5t31 3.5h11zM489 144q11 -128 23 -194q-39 66 -75 194q-32 114 -44 209q-4 32 -4 53q0 44 47 65q32 14 75 14q-13 0 -23 -14q-15 -20 -15 -65q0 -21 2 -53q4 -96 14 -209zM512 801v-263l-37 90l10 118zM544 143h-4q-6 2 -9 7t-1 11q8 28 14 53q1 6 6.5 9t11 1.5
t9 -6.5t1.5 -11q-7 -30 -14 -54q-3 -10 -14 -10zM578 291h-2q-6 1 -9.5 6.5t-2.5 11.5q7 40 10 68q1 7 5.5 10.5t10.5 3t10 -5t4 -11.5q-4 -30 -11 -71q-2 -12 -15 -12zM574 416v0q0 -6 4.5 -10t10.5 -4t10.5 4t4.5 10v0v0q0 6 -4.5 10.5t-10.5 4.5t-10.5 -4.5t-4.5 -10.5v0
zM663 693q6 9 -1.5 17t-16.5 4q-47 -21 -81 -61q-7 105 -38 171q-5 8 -14 8v0v0q-9 0 -13 -8q-32 -66 -38 -171q-34 40 -81 61q-10 4 -17 -4t-2 -17q6 -10 19.5 -36.5t30 -81.5t11.5 -94q-14 -8 -24 -17q-24 -24 -24 -58q0 -72 39 -227.5t87 -235.5q4 -7 12.5 -7t12.5 7
q48 80 86.5 235.5t38.5 227.5q0 34 -23 58q-11 10 -25 17q-3 24 2.5 55.5t14 56t20 50.5t16.5 35t8 15zM512 778q24 -74 23 -167q-9 -16 -16 -34q-4 -10 -7 -19q-2 8 -7 19q-7 18 -16 34q0 95 23 167zM410 662q44 -35 68 -95q13 -32 18 -67q-23 -2 -43 -8q3 71 -43 170z
M621 406q0 -42 -17 -126h-62q-6 0 -10.5 -4.5t-4.5 -10.5t4.5 -10.5t10.5 -4.5h56q-6 -31 -13 -56q-34 -135 -73 -213q-28 58 -55 149h41q6 0 10 4t4 10t-4 10.5t-10 4.5h-49q-5 15 -10 35q-19 78 -29 144h35q6 0 10 4.5t4 10.5t-4 10.5t-10 4.5h-39q-3 23 -3 38q0 22 15 37
q19 18 57 24q18 4 36 4h1q21 0 49.5 -6t44.5 -22q15 -15 15 -37zM529 500q5 34 18 67q24 60 67 95q-45 -99 -42 -170q-20 6 -43 8z" />
    <glyph glyph-name="Cheese" unicode="&#xe674;" 
d="M456.5 485q15.5 0 26.5 -11t11 -26.5t-11 -26.5t-26.5 -11t-26.5 11t-11 26.5t11 26.5t26.5 11zM597 288q23 0 39.5 -16.5t16.5 -40t-16.5 -40t-39.5 -16.5t-39.5 16.5t-16.5 40t16.5 40t39.5 16.5zM802 399q-21 -22 -51.5 -22t-52 21.5t-21.5 52.5q0 30 21 52l-186 186
l-203 -204q21 -10 34 -30.5t13 -45.5q0 -35 -24.5 -59.5t-59.5 -24.5q-25 0 -45.5 13t-30.5 34l-115 -114q93 -93 214 -139q105 -40 217 -40q120 0 232 45.5t200 133.5zM456 410q-14 0 -25 10t-12 24v3q0 16 12 27q10 11 25 11q16 0 27 -11t11 -26.5t-11 -26.5t-27 -11z
M597 175q-23 0 -39.5 16.5t-16.5 40t16.5 40t39.5 16.5t39.5 -16.5t16.5 -40t-16.5 -40t-39.5 -16.5zM512 689l-217 -570q-122 46 -214 139l115 114q10 -21 30.5 -34t45.5 -13q35 0 59.5 24.5t24.5 59.5q0 25 -13 45.5t-34 30.5zM876 244q-6 0 -11 4l-58 58q-11 11 0 22
t22 0l58 -58q11 -11 0 -22q-5 -4 -11 -4zM736 316h-1q-57 6 -92 52q-9 12 3 21.5t21 -3.5q28 -35 71 -40q7 -1 10.5 -5.5t3.5 -11.5q-2 -13 -16 -13zM639 481q-6 0 -11 4l-88 89q-11 11 -0.5 22t21.5 0l89 -89q11 -11 0 -22q-5 -4 -11 -4zM497 623v0q0 -7 4.5 -11.5t11 -4.5
t11 4.5t4.5 11.5v0v0q0 6 -4.5 10.5t-11 4.5t-11 -4.5t-4.5 -10.5v0zM512 64q-125 0 -239 47t-203 136q-4 4 -4 10.5t4 10.5l115 115q6 6 13.5 4.5t11.5 -8.5q8 -18 25 -28.5t37 -10.5q28 0 48.5 20.5t20.5 48.5q0 20 -10.5 37t-28.5 26q-7 3 -8.5 11t4.5 13l203 204
q11 11 22 0l186 -186q11 -11 0 -22q-17 -17 -17 -41t17 -41t41 -17t42 17q10 10 21 0l141 -141q11 -11 0 -22q-88 -89 -202 -136t-240 -47v0zM103 258q83 -79 188.5 -121.5t221 -42.5t221 42t188.5 122l-120 120q-23 -16 -51 -16q-37 0 -63 26t-26 63q0 28 16 51l-166 165
l-179 -179q38 -30 38 -79q0 -41 -29 -70t-70 -29q-49 0 -79 38l-90 -90v0zM597 160q-30 0 -51 21t-21 50.5t21 50.5t51 21t51 -21t21 -50.5t-21 -50.5t-51 -21zM597 272q-17 0 -29 -12t-12 -29t12 -29t29 -12t29 12t12 29t-12 29t-29 12zM456.5 395q-21.5 0 -37 15.5
t-15.5 37t15.5 37t37 15.5t37 -15.5t15.5 -37t-15.5 -37t-37 -15.5zM456 470q-9 0 -15.5 -6.5t-6.5 -16t6.5 -15.5t15.5 -6t15.5 6t6.5 15.5t-6.5 16t-15.5 6.5zM601 340.5q0 -6.5 4.5 -11t10.5 -4.5t10.5 4.5t4.5 11t-4.5 11t-10.5 4.5t-10.5 -4.5t-4.5 -11zM295 235v0
q0 -7 4.5 -11.5t10.5 -4.5t10.5 4.5t4.5 11.5v0v0q0 6 -4.5 10.5t-10.5 4.5t-10.5 -4.5t-4.5 -10.5v0z" />
    <glyph glyph-name="Chorizo" unicode="&#xe675;" 
d="M172 384l-89 -79v158zM887 527l55 -286h-77l-55 286h77zM810 527l55 -286h-550q-59 0 -101 42t-42 101t42 101t101 42h495zM361 384q0 59 41.5 101t100.5 42h-188q-59 0 -101 -42t-42 -101t42 -101t101 -42h188q-59 0 -100.5 42t-41.5 101zM798 271q-13 0 -15 13l-25 128
q-1 7 2.5 12.5t10 6.5t12 -2.5t6.5 -10.5l25 -128q1 -6 -2.5 -11.5t-10.5 -6.5q-1 -1 -3 -1zM745 481v0q0 -7 5 -11.5t11.5 -4.5t11.5 4.5t5 11.5v0v0q0 6 -5 11t-11.5 5t-11.5 -5t-5 -11v0zM957 244l-54 286q-3 13 -16 13h-572q-57 0 -100.5 -36t-54.5 -91l-67 59
q-7 6 -16.5 2t-9.5 -15v-157q0 -10 9 -14q4 -2 7 -2q6 0 10 4l67 59q11 -55 54.5 -91t100.5 -36h627q7 0 12 6t3 13zM99 341v86l49 -43zM189 384q0 52 37 89.5t89 37.5h482l48 -254h-530q-52 0 -89 37.5t-37 89.5zM878 257l-48 254h44l48 -254h-44z" />
    <glyph glyph-name="Cherry" unicode="&#xe676;" 
d="M780 815q0 -98 -69 -167t-167 -69q0 98 69 167t167 69zM512 234q38 57 94 57q40 0 72 -31q33 31 73 31q51 0 88 -49.5t37 -119.5t-37 -119.5t-88 -49.5q-7 0 -12 1q-61 8 -121 0q-5 -1 -12 -1q-56 0 -94 58q-31 47 -31 111t31 112zM622 10q-31 48 -31 112t31 112
q17 25 39 40q-26 17 -55 17q-56 0 -94 -57q-31 -48 -31 -112t31 -112q38 -57 94 -57q7 0 12 1q35 4 70 3q-39 13 -66 53v0zM512 10q-11 -17 -26 -30q-31 -27 -68 -27q-6 0 -12 1q-60 8 -120 0q-5 -1 -12 -1q-52 0 -88.5 49.5t-36.5 119.5t36.5 119.5t88.5 49.5q40 0 72 -31
q33 31 72 31q37 0 68 -27q15 -13 26 -30q-31 -48 -31 -112t31 -112zM290 10q-31 48 -31 112t31 112q17 25 39 40q-26 17 -55 17q-56 0 -94 -57q-31 -48 -31 -112t31 -112q38 -57 94 -57q6 0 12 1q34 4 70 3q-39 13 -66 53v0zM512 10q-11 -17 -26 -30q-14 13 -26 30
q-31 48 -31 112t31 112q12 17 26 30q15 -13 26 -30q-31 -48 -31 -112t31 -112zM822 70q-1 0 -3 1q-7 1 -10.5 6.5t-2.5 12.5q4 15 4 32q0 38 -17.5 70.5t-42.5 32.5q-6 0 -11 5t-5 11.5t5 11.5t11 5q38 0 65 -40.5t27 -95.5q0 -19 -4 -39q-2 -13 -16 -13zM780 815l-236 -236
q0 98 69 167t167 69zM399 246v0q0 -7 5 -12t11.5 -5t11.5 5t5 12v0v0q0 6 -5 11t-11.5 5t-11.5 -5t-5 -11v0zM788 38v0q0 -7 4.5 -11.5t11 -4.5t11.5 4.5t5 11.5v0v0q0 7 -5 11.5t-11.5 4.5t-11 -4.5t-4.5 -11.5v0zM852 251q-41 56 -101 56q-32 0 -60 -17q-13 95 -57 181
q-25 51 -60 94q94 11 158 82.5t64 167.5v0q0 7 -5 11.5t-11 4.5v0q-95 0 -166 -62.5t-84 -155.5q-78 75 -180 112q8 -3 0 0q-41 13 -79 21q-6 1 -12 -2.5t-7 -10t2.5 -12.5t9.5 -7q130 -28 222 -105q13 -11 27 -24q-91 -64 -145 -193q-20 -50 -33 -103q-28 18 -61 18
q-60 0 -102 -56q-39 -54 -39 -129t39 -129q42 -56 102 -56q7 0 14 1q27 4 58 4t61 -4q4 -1 11 -1q54 0 94 47q40 -47 94 -47q7 0 14 1q28 4 58 4q31 0 61 -4q5 -1 12 -1q60 0 101 56q40 54 40 129t-40 129zM763 798q-6 -81 -63.5 -138.5t-138.5 -63.5q6 81 63.5 138.5
t138.5 63.5zM535 561q41 -47 70 -103q38 -77 53 -163q-25 12 -52 12q-54 0 -94 -46q-40 46 -94 46q-25 0 -47 -11q10 43 27 84q51 124 137 181zM418 -31v0q-5 0 -10 1q-29 4 -62 4q-32 0 -65 -4q-1 -1 -7 -1q-45 0 -77 45t-32 108t32 108t77 45q33 0 61 -27q11 -10 22 0
q28 27 61 27q43 0 75 -42q-28 -49 -28 -111t28 -111q-32 -42 -75 -42zM751 -31h-1q-5 0 -10 1q-29 4 -62 4v0q-32 0 -64 -4q-1 -1 -8 -1q-47 0 -79 49q-1 2 -2 3q-28 43 -28 101q0 63 32 108t77 45q34 0 61 -27q12 -10 23 0q27 27 61 27q45 0 77 -45t32 -108t-32 -108
t-77 -45v0z" />
    <glyph glyph-name="ChickenLeg" unicode="&#xe677;" 
d="M583 120q35 0 59.5 -24.5t24.5 -60t-24.5 -60t-59.5 -24.5q-46 0 -71 37q-25 -37 -70 -37q-36 0 -60.5 24.5t-24.5 60t24.5 60t60.5 24.5h3v96h135v-96h3zM429 35q0 36 25 60.5t60 24.5h3v96h-72v-96h-3q-35 0 -60 -25t-25 -60t24.5 -60t60.5 -25q19 0 36 9
q-22 10 -35.5 30.5t-13.5 45.5zM515 817q90 -1 153.5 -66t62.5 -155q0 -73 -45 -131q-80 -105 -80 -240v-9h-188v8q0 136 -80 240q-45 59 -45 134q0 92 65 156.5t157 62.5zM512 817q-38 0 -65 -64t-27 -155q0 -75 19 -134q34 -103 34 -240v-8h-55v8q0 136 -80 240
q-45 59 -45 134q0 91 64 155t155 64zM568 308q-2 0 -4 1q-6 1 -9.5 7t-2.5 12q23 98 83 177q31 40 31 92q1 51 -30.5 93t-80.5 56q-7 2 -10 8t-1 12.5t7.5 9.5t11.5 1q61 -17 98.5 -67.5t36.5 -113.5q0 -62 -38 -111q-56 -73 -76 -164q-3 -13 -16 -13zM608 -6
q-7 0 -11.5 4.5t-4.5 11.5t4 11q6 6 6 14v0q0 9 -5.5 14.5t-14.5 5.5h-1l-1 16v16h2q22 0 37 -15t15 -36.5t-15 -36.5q-4 -5 -11 -5zM581 71zM531 78q-7 0 -12 5t-5 11v73q0 7 5 11.5t11.5 4.5t11.5 -4.5t5 -11.5v-73v0q0 -6 -5 -11t-11 -5v0zM499 768v0q0 -6 4.5 -11t11 -5
t11.5 5t5 11v0v0q0 7 -5 11.5t-11.5 4.5t-11 -4.5t-4.5 -11.5v0zM606 200q6 0 11 5t5 11v9q0 130 77 230q48 62 48 141q1 97 -67 166.5t-164 70.5h-4q-96 0 -165 -67q-70 -69 -70 -168q0 -80 49 -143q77 -100 77 -231v-8q0 -6 4.5 -11t11.5 -5h10v-65q-37 -4 -62.5 -32.5
t-25.5 -67.5q0 -41 29.5 -70.5t71.5 -29.5q41 0 70 28q30 -28 71 -28t71 29.5t30 70.5q0 39 -25.5 67.5t-62.5 32.5v65h10zM351 474q-42 55 -42 124q0 85 60 145q60 58 143 58h3q84 -1 142.5 -61t57.5 -144q0 -68 -41 -121q-82 -106 -84 -243h-156q-2 138 -83 242zM568 109
q5 -5 12 -5h3q28 0 48 -20t20 -48.5t-20 -49t-48 -20.5q-37 0 -58 31q-5 7 -13 7t-13 -7q-21 -31 -57 -31q-29 0 -49 20.5t-20 49t20 48.5t49 20h2q7 0 12 4.5t5 11.5v80h103v-80v0q0 -7 4 -11v0z" />
    <glyph glyph-name="ChiliPepper" unicode="&#xe678;" 
d="M384 459q-38 -35 -89 -35q-16 0 -31 4q-7 -38 -35 -66q-28 -29 -68 -37l22 6q0 -48 -30 -84q-42 40 -47 97t28 103q22 31 57 48l-34 -22q26 23 60 33t71 3.5t66 -29.5q14 -11 30 -21zM959 623q-3 -99 -44 -188t-107.5 -153.5t-157.5 -102.5t-191 -38q-53 0 -104 11
q-101 21 -185 81q-10 7 -17 14q30 36 30 84v0q31 12 53 38t28 59q15 -4 31 -4q51 0 89 35q98 -63 215 -63q117 1 214 63t146 164zM183 331v0q0 -48 -30 -84q-42 39 -47 96.5t28 103.5q22 31 57 47l-34 -21q26 23 60 33l1 -4q-2 -3 -5.5 -8t-9 -21.5t-6.5 -32.5t6.5 -37.5
t25.5 -40.5v0q-28 -29 -67 -37zM355 152q-101 21 -185 81q-10 7 -17 14q30 36 30 84v0q31 12 53 38t28 59q15 -4 31 -4q-1 2 -8 -20t-12 -54.5t-3.5 -69t22.5 -72t61 -56.5zM599 328q-88 0 -169 31q-7 3 -10 9t0 12.5t9 9.5t13 1q75 -29 157 -29q127 0 234 68q5 3 7 5
q6 4 13 2.5t11 -7.5t2.5 -12.5t-7.5 -10.5q-2 -2 -8 -5q-115 -74 -252 -74zM370 397q0 -7 5 -12t12 -5t12 5t5 12t-5 12t-12 5t-12 -5t-5 -12zM963.5 639.5q-13.5 3.5 -19.5 -9.5q-47 -98 -139 -156q-94 -61 -206 -61q-131 0 -234 80q-50 38 -111.5 36t-107.5 -44l-2 -1
l-9 -9q-48 81 6 177q3 6 1.5 13t-8 10.5t-13 1.5t-10.5 -8q-48 -86 -24 -168q9 -30 26 -55q-27 -45 -24 -98q5 -82 71 -129q134 -95 299 -95q101 0 194 37.5t165.5 107.5t113 161t44.5 192q1 14 -12.5 17.5zM123 350q-4 65 44 108l2 2q38 35 91 35q47 0 84 -29q3 -2 10 -8
q-27 -17 -59 -17q-14 0 -27 4q-7 1 -13 -3t-7 -11q-6 -28 -25 -51t-46 -33q-11 -4 -11 -16v-1q0 -30 -15 -56q-26 33 -28 76zM795 294q-68 -66 -154.5 -101t-181.5 -35q-154 0 -279 89q-1 0 -4 3q21 32 24 70q57 28 77 89q8 -2 18 -2q50 0 90 31q98 -58 214 -58
q122 0 224 65q107 69 158 184q-50 -134 -91 -209t-95 -126z" />
    <glyph glyph-name="CottonCandy" unicode="&#xe679;" 
d="M253 503q0 -130 76 -221.5t183 -91.5t183 91.5t76 221.5t-76 221.5t-183 91.5t-183 -91.5t-76 -221.5zM412 503q0 103 50.5 185t129.5 113q-39 15 -80 15q-107 0 -183 -91.5t-76 -221.5t76 -221.5t183 -91.5q41 0 80 15q-79 31 -129.5 113t-50.5 185zM787 503
q0 89 -36.5 165t-100 120t-138 44t-138 -44t-100.5 -120t-37 -165q0 -131 75.5 -226t183.5 -103v-222q0 -7 5 -11.5t11.5 -4.5t11 4.5t4.5 11.5v222q109 8 184 103t75 226zM512 206q-68 0 -125.5 43t-88.5 115q72 -48 168 -52h1q6 0 10.5 4.5t5.5 10.5q0 6 -4.5 11t-10.5 5
q-81 4 -144 42q-28 16 -45 34q-10 41 -10 84q0 94 45 171q55 -53 163 -69h3q13 0 15 13q1 7 -3 12t-10 6q-104 15 -151 65q35 47 81.5 73t99.5 26q71 0 130 -46q-39 2 -69 9q-7 2 -12.5 -1.5t-7 -10t1.5 -12t10 -7.5q42 -11 97 -11q7 0 15 1q75 -86 78 -211
q-33 -20 -75.5 -28.5t-76 -7t-67.5 8.5t-47.5 11t-19.5 6q-6 3 -12 0.5t-8.5 -9t0.5 -12.5t9 -8q47 -19 109 -26q26 -2 47 -2q80 0 140 30q-9 -113 -78.5 -190.5t-163.5 -77.5z" />
    <glyph glyph-name="Croissant" unicode="&#xe67a;" 
d="M266 236q-14 -8 -30 -19q-21 -14 -43 -32q-23 -20 -53 -16.5t-49 26.5q-15 19 -15 44v0q0 20 10 36q30 51 70 93q13 13 26 25zM431 295q-24 -4 -44 -9q-68 -18 -125 -53l33 19q-8 -4 -29 -16l-99 185q66 64 150 100q17 7 32 13q3 1 10 3zM266 236q-14 -8 -30 -19l-78 146
l-2 5q13 13 26 25zM939 275q11 -19 9.5 -41t-15.5 -39q-21 -27 -56 -27q-26 0 -45 17q-34 28 -73 51l83 157q58 -52 97 -118zM857 421l-14 -28l-84 -157q-39 22 -83 38q-41 14 -82 21l71 242q7 -2 11 -4q146 -52 235 -175zM676 572l-11 -35l-71 -242q-39 7 -82 7v0v0
q-43 0 -84 -7l-69 242l-10 35q79 28 163.5 28t163.5 -28zM431 295q-24 -4 -44 -9l-69 230l-1 5q17 7 32 13q3 1 10 3zM620 527q-2 0 -4 1q-33 8 -66 10q-6 1 -10 5.5t-3.5 11t5.5 10t11 3.5q36 -3 70 -12q6 -1 9 -6.5t2 -11.5q-3 -11 -14 -11zM801 396q-5 0 -9 4
q-30 24 -64 44q-12 7 -5 20t20 5q96 -56 156 -146q-37 42 -56 61.5t-23 20t-7 -2.5q-1 0 -1 -1q-4 -5 -11 -5zM877 198q-6 0 -10.5 4.5t-4.5 10.5t4.5 10.5t10.5 4.5t9 4q5 6 1 13q-8 13 -17 26q-8 13 4 21t20 -4q9 -13 19 -28q13 -24 -4 -46q-12 -16 -32 -16zM496 554
q0 -7 4 -11t10.5 -4t10.5 4t4 10.5t-4 10.5t-10.5 4t-10.5 -4t-4 -10v0zM951 282q-37 64 -90 114l9 18q6 10 -2 17q-80 78 -184 115l6 22q4 14 -9 18q-82 29 -169 29t-168 -29q-13 -4 -10 -18l7 -22q-105 -37 -184 -115q-8 -8 -3 -17l10 -18q-54 -51 -91 -114
q-13 -23 -11.5 -49t18.5 -47q22 -29 59 -32q4 -1 9 -1q31 0 55 20q32 28 70 50q39 23 81 37q76 27 158 27t159 -27q41 -14 81 -37q37 -22 70 -50q28 -23 64 -19q36 3 59 32q16 21 18 47t-12 49zM183 196q-17 -16 -41 -13q-24 2 -39 21q-11 14 -12 31.5t8 31.5
q66 112 177 176l-30 -202q-33 -20 -63 -45zM344 288q-37 -13 -72 -32l-87 162q73 67 164 100l63 -211q-34 -7 -68 -19zM441 311l-74 252q70 22 145 22t146 -22l-75 -252q-33 5 -71 5q-35 0 -71 -5zM612 307l63 211q92 -33 164 -100l-86 -162q-35 18 -72 32q-34 12 -69 19z
M921 204q-14 -19 -38 -21t-42 13q-29 24 -63 45l68 128q93 -90 128 -214q-26 66 -36 67q-4 0 -13 -13q-2 -3 -4 -5z" />
    <glyph glyph-name="Chocolate" unicode="&#xe67b;" 
d="M385 476l392 -46l55 -210l-665 127l55 148l53 -6zM777 230v-277h-555v383zM723 553v-117l-109 13v104h109zM614 766h109v-160h-109v160zM444 766h110v-160h-110v160zM275 766h110v-160h-110v160zM777 460v-30l-53 6v117h-110v-104l-60 7v97h-110v-84l-59 7v77h-110v-63
v-1l-53 6v321h555v-356zM723 606v160h-109v-160h109zM554 606v160h-110v-160h110zM385 606v160h-110v-160h110zM554 553v-97l-110 13v84h110zM385 553v-77l-110 13v1v63h110zM781 181l-562 17l3 138l555 -106zM762 268v0q-13 0 -16 13l-23 87l-7 1q-7 1 -11.5 6t-3.5 12
t6.5 11.5t12.5 3.5l18 -2q11 -2 14 -13l26 -98q2 -6 -1.5 -12t-10.5 -8q-2 -1 -4 -1zM725 -15q-7 0 -12 4.5t-5 11.5v140q0 7 5 12t12 5t12 -5t5 -12v-140q0 -7 -5 -11.5t-12 -4.5zM685 634q-7 0 -12 5t-5 12v69q0 7 5 12t12 5t12 -5t5 -12v-69q0 -7 -5 -12t-12 -5zM346 634
q-7 0 -12 5t-5 12v69q0 7 5 12t12 5t12 -5t5 -12v-69q0 -7 -5 -12t-12 -5zM515.5 634q-6.5 0 -11.5 5t-5 12v69q0 7 5 12t11.5 5t11.5 -5t5 -12v-69q0 -7 -5 -12t-11.5 -5zM685 476q-7 0 -12 4.5t-5 11.5v18q0 7 5 12t12 5t12 -5t5 -12v-18q0 -7 -5 -11.5t-12 -4.5z
M515.5 486q-6.5 0 -11.5 5t-5 12v7q0 7 5 12t11.5 5t11.5 -5t5 -12v-7q0 -7 -5 -12t-11.5 -5zM331 510v0q0 -7 4.5 -11.5t11.5 -4.5t12 4.5t5 11.5v0v0q0 7 -5 12t-12 5t-11.5 -5t-4.5 -12v0zM848 224l-55 208v384q0 7 -5 12t-11 5h-555q-7 0 -12 -5t-5 -12v-318l-54 -145
q-3 -8 1 -14q4 -8 12 -9l41 -7v-370q0 -7 5 -11.5t12 -4.5h554q7 0 12 4.5t5 11.5v257l35 -7h4q7 0 12 5q6 7 4 16zM760 799v-350l-20 2v102q0 7 -5 11.5t-12 4.5h-109q-7 0 -12 -4.5t-5 -11.5v-85l-26 3v82q0 7 -5 11.5t-12 4.5h-110q-7 0 -11.5 -4.5t-4.5 -11.5v-65l-26 3
v62q0 7 -5 11.5t-12 4.5h-110q-7 0 -12 -4.5t-5 -11.5v-46l-20 3v289h522zM707 455l-77 9v72h77v-81zM538 475l-77 9v52h77v-61zM368 494l-76 9v33h76v-42zM760 -30h-521v346l521 -99v-247zM189 360l44 117l530 -62l46 -174zM275 590h110q7 0 12 5t5 11v160q0 7 -5 12t-12 5
h-110q-7 0 -12 -5t-5 -12v-160q0 -6 5 -11t12 -5zM292 750h76v-127h-76v127zM444 590h110q7 0 12 5t5 11v160q0 7 -5 12t-12 5h-110q-7 0 -11.5 -5t-4.5 -12v-160q0 -6 4.5 -11t11.5 -5zM461 750h77v-127h-77v127zM614 590h109q7 0 12 5t5 11v160q0 7 -5 12t-12 5h-109
q-7 0 -12 -5t-5 -12v-160q0 -6 5 -11t12 -5zM630 750h77v-127h-77v127z" />
    <glyph glyph-name="Corn" unicode="&#xe67c;" 
d="M512 9q28 0 53 6v-62h-106v62q25 -6 53 -6zM743 531q1 -9 3 -26t3.5 -65.5t-1 -94t-13.5 -102.5t-30 -101t-55 -80t-85 -47q-25 -6 -53 -6q1 13 3 37t14 90.5t30.5 125t55 126.5t84.5 110q21 19 44 33zM325 498q48 -42 84.5 -109t55 -128.5t30.5 -123.5t14.5 -91.5
t2.5 -36.5q-28 0 -53 6q-49 12 -85 47.5t-55 79.5t-30 101t-13.5 102.5t-1 94t3.5 65.5t3 26v0q23 -14 44 -33zM380 436q-25 36 -55 62q-21 19 -44 33q-1 -9 -2.5 -26t-3.5 -65.5t0.5 -94t13.5 -102.5t30 -101t55.5 -80t84.5 -47q25 -6 53 -6q0 10 -2 29q-42 27 -70.5 75.5
t-40.5 108t-16 110.5t-3 104zM708 527q0 -16 -9 -29q-45 -39 -79.5 -98t-54.5 -123.5t-30.5 -113.5t-16.5 -97q0 -1 -2 -14v-2.5v-1.5q-3 -28 -9 -54l8 45q-1 -2 -1 -7q0 -1 -0.5 -2.5l-0.5 -1.5v-1.5v-0.5q-2 -24 -5 -46l5 40v-1t-1 -2v-6v-1v-1v0q-2 30 -9 77
q-25 174 -89 294q-38 72 -87 117q-1 1 -2 1q-9 13 -9 29q0 27 23 41q-12 13 -12 31q0 29 26 42q-5 10 -5 21v0q0 16 9.5 28.5t24.5 17.5q-1 4 -1 8q0 19 12.5 32.5t30.5 15.5v4q0 20 14 34t34 14q26 0 40 -22q14 22 40 22h2q3 -1 4 -1h3q1 -1 2 -1t2 -0.5t3 -0.5l0.5 -0.5
l0.5 -0.5h1q13 -5 21 -17t8 -27v-4q19 -2 31 -15.5t12 -32.5v-9q14 -4 23.5 -16.5t9.5 -28.5q0 -11 -4 -21q25 -13 25 -42q0 -18 -11 -32q23 -13 23 -40zM540 768v-4q-18 -2 -30.5 -15.5t-12.5 -32.5q0 -4 1 -9q-15 -4 -24.5 -16.5t-9.5 -28.5q0 -11 5 -21q-26 -13 -26 -42
q0 -18 12 -32q-23 -14 -23 -40q0 -16 9 -29q1 -1 2 -1q-14 -11 -14 -29v0q0 -17 13 -28q-13 -11 -13 -28q0 -9 -14 -32q-38 72 -88 117l-1 1q-10 13 -10 29q0 26 23 40q-11 14 -11 32q0 29 25 42q-5 10 -5 21v0q0 16 9.5 28.5t24.5 16.5q-1 5 -1 9q0 19 12.5 32.5t31.5 15.5
q-1 2 -1 4q0 20 14 34t34 14q26 0 40 -22q14 22 40 22q2 0 3 -1h4q1 0 3 -1h2l1.5 -0.5t2.5 -0.5l0.5 -0.5t1.5 -0.5v0q-13 -5 -21.5 -17t-8.5 -27zM649 127q-5 0 -8 2q-6 3 -8 9.5t1 12.5q31 57 43 150q4 31 5 65q0 7 5 11.5t12 4.5t11.5 -5t4.5 -12q-1 -35 -5 -68
q-13 -99 -47 -161q-5 -9 -14 -9zM532 756v0q0 -7 5 -12t11.5 -5t11.5 5t5 12v0v0q0 7 -5 12t-11.5 5t-11.5 -5t-5 -12v0zM577 714v0q0 -7 4.5 -12t11.5 -5t12 5t5 12v0v0q0 6 -5 11t-12 5t-11.5 -5t-4.5 -11v0zM608 659.5q0 -6.5 5 -11.5t12 -5t11.5 5t4.5 11.5t-4.5 11.5
t-11.5 5t-12 -5t-5 -11.5zM628 598v0q0 -6 5 -11t12 -5t11.5 5t4.5 11v0v0q0 7 -4.5 12t-11.5 5t-12 -5t-5 -12v0zM641 528q0 -7 5 -12t12 -5t11.5 5t4.5 12t-4.5 12t-11.5 5t-12 -5t-5 -12zM683 425v0q0 -7 4.5 -11.5t11.5 -4.5t12 4.5t5 11.5v0v0q0 7 -5 12t-12 5
t-11.5 -5t-4.5 -12v0zM759 533q-1 9 -9 13t-15 -1q-4 -2 -11 -7q-5 23 -22 37q11 6 11 24v0q0 29 -22 49q1 7 1 14q0 38 -33 56q0 20 -12 36t-31 23q-3 23 -21.5 39t-42.5 16v0q-22 0 -40 -14q-17 14 -40 14q-24 0 -42 -16t-21 -39q-19 -7 -31 -23t-13 -36q-33 -19 -33 -56
q0 -8 2 -14q-23 -19 -23 -49q0 -15 7 -28q-16 -16 -18 -39q-3 9 -10 13q-8 5 -16 1t-9 -13q-11 -81 -6 -179q10 -199 91 -291q39 -44 93 -61v-49q0 -7 5 -12t11 -5h106q7 0 12 5t5 12v49q54 17 93 61q80 92 90 291q5 97 -6 179zM333 527q0 17 15 27q6 4 7.5 11.5t-3.5 12.5
q-8 9 -8 21q0 19 17 28q14 7 7 21q-3 6 -3 14v0q0 23 22 30q14 4 11 18v6q0 12 8 21t20 10q7 1 11 6t4 12v3q0 13 9 22t22 9q17 0 26 -14q5 -8 14 -8t14 8q9 14 26 14v0q13 0 22 -9t9 -22v-2v-1.5v-1.5q0 -6 4.5 -10.5t10.5 -5.5q12 -1 20 -10t8 -21v-6q-3 -14 11 -18
q22 -7 22 -30v0q0 -7 -3 -14q-7 -14 7 -21q17 -9 17 -28q0 -12 -8 -21q-5 -5 -3.5 -12.5t7.5 -11.5q16 -9 16 -27q0 -10 -6 -18q-46 -42 -82 -105q-43 -75 -71 -177q-12 -43 -21 -90q-8 46 -20 90q-28 102 -72 177q-36 63 -82 105q-5 8 -5 18zM375 85q-34 38 -54 98
t-25 124.5t-5 109.5t4 85q110 -82 165 -284q26 -94 34 -192q-73 6 -119 59zM548 -31h-72v26q18 -3 36 -3q19 0 36 3v-26zM650 85q-47 -53 -120 -59q9 97 35 192q55 201 164 284q4 -41 4 -85.5t-5 -109t-25 -124.5t-53 -98z" />
    <glyph glyph-name="Cupcake" unicode="&#xe67d;" 
d="M782 299h81l-112 -344h-71l78 344h24zM758 299l-78 -344h-96l34 344h140zM618 299l-34 -344h-144l-34 344h212zM406 299l34 -344h-95l-78 344h139zM246 299h21l78 -344h-71l-112 344h84zM606 721q0 -47 -38 -75h-108q-38 28 -38 75q0 38 27 65t65 27t65 -27t27 -65z
M502 721q0 27 14 49t38 34q-19 9 -40 9q-38 0 -65 -27t-27 -65q0 -47 38 -75h80q-38 28 -38 75zM789 435q27 -27 27 -65q0 -44 -34 -71h-536q-4 3 -7 6q-27 27 -27 65t27 65t65 27h420q38 0 65 -27zM568 646h90q36 0 62 -25.5t26 -62.5v-8q0 -36 -26 -62t-62 -26h-288
q-36 0 -62 26t-26 62v8q0 37 26 62.5t62 25.5h198zM361 305q4 -3 7 -6h-122q-4 3 -7 6q-27 27 -27 65t27 65t65 27h122q-38 0 -65 -27t-27 -65t27 -65zM493 462h-123q-36 0 -62 25.5t-26 62.5v8q0 37 26 62.5t62 25.5h123q-37 0 -62.5 -25.5t-25.5 -62.5v-8
q0 -37 25.5 -62.5t62.5 -25.5zM750 322q-8 0 -13 6q-4 5 -3.5 12t6.5 11q9 7 9 19q0 10 -7.5 17.5t-17.5 7.5q-7 0 -11.5 4.5t-4.5 11.5t4.5 12t11.5 5q24 0 41 -17t17 -41q0 -27 -21 -45q-5 -3 -11 -3zM673 500q-10 0 -15 9q-2 6 0 12.5t9 9.5q12 6 12 19v8q0 9 -6 15
t-15 6q-7 0 -12 4.5t-5 11.5t5 12t12 5q22 0 38 -16t16 -38v-8q0 -35 -32 -49q-3 -1 -7 -1zM538 671q-9 0 -13 7q-4 5 -3 12t6 11q11 7 11 20q0 14 -12 21q-6 3 -7.5 10t2 12.5t10 7.5t12.5 -2q28 -17 28 -49q0 -30 -24 -47q-5 -3 -10 -3zM876 308.5q-5 6.5 -13 6.5h-45
q15 26 15 55q0 45 -32 77q-29 29 -70 31q31 32 31 76q0 45 -31.5 77t-76.5 32h-48q17 27 17 58q0 45 -32 77t-77 32t-77 -32t-32 -77q0 -32 17 -58h-48q-45 0 -76.5 -32t-31.5 -77q0 -44 31 -76q-43 -2 -72.5 -33.5t-29.5 -74.5q0 -29 15 -55h-48q-8 0 -13 -6.5t-3 -14.5
l112 -344q4 -12 16 -12h477q12 0 16 12l111 344q3 8 -2 14.5zM439 721q0 31 22 53t53 22t53 -22t22 -53q0 -36 -27 -58h-96q-27 22 -27 58zM374 630h280q31 0 53 -22.5t22 -53.5t-22 -53t-53 -22h-280q-31 0 -53 22t-22 53t22 53.5t53 22.5zM251 317q-23 22 -23 53t22.5 53
t53.5 22h420q31 0 53.5 -22t22.5 -53q0 -32 -24 -55h-524zM185 282h68l71 -311h-38zM287 282h104l31 -311h-64zM455 -29l-30 311h175l-30 -311h-115zM603 -29l30 311h104l-71 -311h-63zM739 -29h-39l71 311h69z" />
    <glyph glyph-name="Crab" unicode="&#xe67e;" 
d="M793 555v-47q-43 0 -73 30t-30 73v74q45 -11 74 -47.5t29 -82.5zM335 685v-74q0 -43 -30 -73t-73 -30v47q0 46 29 82.5t74 47.5zM835 517q-20 -9 -42 -9v47q0 46 -29 82.5t-74 47.5v128h3q84 0 143.5 -59t59.5 -143q0 -43 -30 -73q-22 -21 -51 -28zM190 517q-17 8 -31 21
q-30 30 -30 73q0 84 59.5 143t143.5 59h3v-128q-45 -11 -74 -47.5t-29 -82.5v-47q-22 0 -42 9zM568 435q132 -21 216 -125q48 -60 67 -134h-131q-31 -55 -86.5 -88t-121.5 -33q-89 0 -156 59q-31 26 -51 62h-131q18 74 67 134q84 104 215 125q28 5 56 5q30 0 56 -5zM501 113
q-20 18 -35 37q-19 26 -51 26q-38 0 -56.5 33t2.5 66q12 19 25 35q78 97 199 122q-9 2 -16 3q-28 5 -56 5t-57 -5q-131 -21 -215 -125q-49 -60 -67 -134h131q20 -35 51 -62q67 -59 156 -59q38 0 73 11q-67 22 -111 75zM666 322q-6 0 -10 2q-66 41 -144 41q-7 0 -12.5 5.5
t-5.5 13t5.5 13t12.5 5.5q89 0 163 -46q7 -4 8.5 -11.5t-2.5 -13.5q-5 -9 -15 -9zM839 592q-8 0 -13 5.5t-5 13.5q0 53 -38 90q-5 5 -5.5 13t5 13t13 5.5t13.5 -5.5q48 -48 48 -116q0 -8 -5 -13.5t-13 -5.5zM278.5 704q-7.5 0 -13 5.5t-5.5 12.5v25q0 7 5.5 12.5t13 5.5
t13 -5.5t5.5 -12.5v-25q0 -7 -5.5 -12.5t-13 -5.5zM728 747v0q0 -8 5.5 -13.5t13 -5.5t13 5.5t5.5 13.5v0v0q0 7 -5.5 12.5t-13 5.5t-13 -5.5t-5.5 -12.5v0zM274 264q-6 -5 -7.5 -12.5t2.5 -13.5t11.5 -7.5t13.5 2.5q94 61 218.5 61t217.5 -61q5 -3 10 -3q10 0 16 8
q4 6 2.5 13.5t-7.5 12.5q-103 67 -238.5 67t-238.5 -67zM935 142l-68 45q-17 62 -53 114q27 9 39 14q10 4 11 15q8 71 -9 177q27 16 43 43.5t16 60.5q0 91 -65 156t-156 65h-3q-8 0 -13.5 -5.5t-5.5 -13.5v-202q0 -50 35.5 -85.5t85.5 -35.5q14 0 28 3q12 -82 9 -148
q-20 -7 -39 -14q-78 91 -194 118l6 9q4 7 2.5 14.5t-8 11.5t-14 2t-11.5 -8l-14 -22q-21 2 -45 2q-22 0 -44 -2l-14 22q-4 6 -11.5 8t-14 -2t-8 -11.5t2.5 -14.5l6 -9q-117 -27 -195 -118q-20 7 -38 14q-4 64 9 148q14 -4 27 -4q50 0 86 36t36 86v202q0 8 -5.5 13t-13.5 5
h-3q-92 0 -156.5 -64.5t-64.5 -155.5q0 -33 16 -60.5t43 -43.5q-17 -108 -10 -177q1 -11 12 -15q11 -5 38 -14q-36 -52 -52 -114l-69 -45q-8 -6 -8 -15v-64q0 -8 5.5 -13.5t13 -5.5t13 5.5t5.5 13.5v54l61 40h81l-103 -103q-5 -5 -5 -13v-5l18 -66q4 -14 18 -14q2 0 5 1
q7 2 11 8.5t2 13.5l-15 57l110 111q14 -20 31 -37l-57 -97q-5 -9 0 -19l30 -49q5 -9 16 -9q5 0 9 3q7 4 8.5 11.5t-1.5 13.5l-24 40l48 82q68 -49 151.5 -49t151.5 49l48 -82l-24 -39q-4 -7 -2 -14.5t8 -11.5q5 -2 10 -2q10 0 16 8l29 50q6 9 0 18l-57 97q17 17 31 37
l111 -111l-15 -57q-2 -7 1.5 -13.5t11.5 -8.5q2 -1 5 -1q14 0 17 14l18 67q3 10 -5 17l-103 103h81l62 -40v-54q0 -8 5 -13.5t13 -5.5t13 5.5t5 13.5v64q1 9 -8 15zM877 611q0 -30 -18.5 -53t-47.5 -30v27q0 49 -28.5 88.5t-74.5 55.5v95q71 -6 120 -58.5t49 -124.5z
M708 611v48q30 -14 48 -42.5t18 -62.5v-26q-28 7 -47 30t-19 53zM251 528v27q0 34 18 62t48 42v-48q0 -30 -19 -53t-47 -30zM317 794v-95q-46 -16 -74.5 -55.5t-28.5 -89.5v-26q-29 7 -47.5 30t-18.5 53q0 72 49 124.5t120 58.5zM720 194q-11 0 -16 -9q-29 -52 -80.5 -82
t-111 -30t-111 30t-80.5 82q-5 9 -16 9h-107q33 102 120 164.5t194.5 62.5t194 -62.5t120.5 -164.5h-107z" />
    <glyph glyph-name="DonerKebab" unicode="&#xe67f;" 
d="M215 384v0q0 -51 87 -87t210 -36t210 36t87 87v0v0q0 51 -87 87t-210 36t-210 -36t-87 -87v0zM360 384q0 43 63.5 76t161.5 43q-36 4 -73 4q-123 0 -210 -36t-87 -87t87 -87t210 -36q37 0 73 4q-98 10 -161.5 43t-63.5 76zM544 461q0 -6 4 -10t10 -4t10.5 4t4.5 10v0
q0 6 -4.5 10.5t-10.5 4.5t-10 -4.5t-4 -10.5v0zM948 398h-126q-11 52 -94 86q-90 38 -216 38t-215 -38q-83 -34 -95 -86h-125q-6 0 -10 -4t-4 -10t4 -10t10 -4h125q12 -52 95 -86q90 -38 215.5 -38t215.5 38q83 34 94 86h126q6 0 10 4t4 10t-4 10t-10 4zM717 310
q-40 -16 -93 -25v60q0 6 -4 10t-10 4t-10 -4t-4 -10v-65q-41 -5 -84 -5t-83 5v65q0 6 -4 10t-10 4t-10.5 -4t-4.5 -10v-60q-52 9 -92 25q-37 16 -57.5 35t-20.5 39q0 19 19 37.5t53 33.5v-32q0 -6 4.5 -10t10.5 -4t10 4t4 10v43q73 24 167 26v-69q0 -6 4 -10t10 -4t10.5 4
t4.5 10v69q94 -2 166 -26v-43q0 -6 4.5 -10.5t10.5 -4.5t10 4.5t4 10.5v32q35 -15 54 -33.5t19 -37.5q0 -20 -20.5 -39t-57.5 -35zM751 350q-6 0 -11 5q-9 11 2 21q5 4 8 8q-11 16 -50 33q-39 16 -92 24q-6 1 -9.5 6t-2.5 10.5t6 9t11 3.5q56 -9 98 -27q32 -13 50 -29
t18 -30t-18 -30q-4 -4 -10 -4zM750 382zM750 386z" />
    <glyph glyph-name="Cupcake1" unicode="&#xe680;" 
d="M279 277l74 -327h-68l-106 327h64h36zM412 277l32 -327h-91l-74 327h133zM845 277l-106 -327h-68l75 327h36h63zM746 277l-75 -327h-90l32 327h133zM613 277l-32 -327h-137l-32 327h201zM594 683h-164q-1 36 17 69t52 51q38 20 80 13q-27 -58 3 -115q6 -10 12 -18z
M572 796q3 10 7 20q-42 7 -80 -13q-34 -18 -52 -51t-17 -69h85q-1 33 14 63.5t43 49.5zM721.5 663q19.5 -20 19.5 -48t-19.5 -48t-47.5 -20h-323q-28 0 -48 20t-20 48t20 48t48 20h323q28 0 47.5 -20zM778 527.5q20 -19.5 20 -47.5t-20 -48t-48 -20h-435q-28 0 -48 20
t-20 48t20 47.5t48 19.5h435q28 0 48 -19.5zM829.5 392.5q19.5 -19.5 19.5 -47.5t-19.5 -48t-47.5 -20h-539q-28 0 -48 20t-20 48t20 47.5t48 19.5h539q28 0 47.5 -19.5zM467 567q20 -20 48 -20h-164q-28 0 -48 20t-20 48t20 48t48 20h164q-28 0 -48 -20t-20 -48t20 -48z
M410.5 432q19.5 -20 47.5 -20h-163q-28 0 -48 20t-20 48t20 47.5t48 19.5h163q-28 0 -47.5 -19.5t-19.5 -47.5t19.5 -48zM359 297q20 -20 48 -20h-164q-28 0 -48 20t-20 48t20 47.5t48 19.5h164q-28 0 -48 -19.5t-20 -47.5t20 -48zM800.5 329q-6.5 0 -11 4.5t-4.5 11.5
q0 1 -1 2t-2 1q-7 0 -11.5 4.5t-4.5 11t4.5 11.5t11.5 5q14 0 24.5 -10.5t10.5 -24.5q0 -7 -5 -11.5t-11.5 -4.5zM749.5 464q-6.5 0 -11.5 4.5t-5 11.5q0 1 -1 2t-2 1q-7 0 -11.5 5t-4.5 11t4.5 11t11.5 5q14 0 24.5 -10.5t10.5 -24.5q0 -7 -4.5 -11.5t-11 -4.5zM692.5 599
q-6.5 0 -11 4.5t-4.5 11.5q0 1 -1 2t-2 1q-7 0 -11.5 5t-4.5 11.5t4.5 11t11.5 4.5q14 0 24.5 -10t10.5 -25q0 -7 -5 -11.5t-11.5 -4.5zM523 708q-13 0 -15 13q-5 19 -5 40q0 5 4.5 9t11.5 4v0q6 0 11 -4.5t5 -10.5q0 -17 3 -32q2 -6 -1.5 -11.5t-10.5 -6.5q-2 -1 -3 -1z
M847 293q18 23 18 52q0 31 -20 54t-51 28q19 23 19 53q0 32 -21.5 55.5t-53.5 27.5q19 22 19 52q0 34 -24.5 58.5t-58.5 24.5h-72q-4 6 -6 11q-26 49 -2 100q1 3 1 7t-2 7q-3 7 -11 9q-47 7 -90 -15q-34 -18 -54.5 -49.5t-22.5 -69.5h-64q-35 0 -59 -24.5t-24 -58.5
q0 -29 18 -52q-31 -4 -53 -27.5t-22 -55.5q0 -30 19 -53q-30 -5 -50.5 -28t-20.5 -54q0 -29 19 -52q-8 -1 -12 -7q-3 -4 -3 -9q0 -2 1 -5l106 -327q4 -11 15 -11h454q12 0 15 11l106 327q1 3 1 5q0 5 -3 9q-4 6 -11 7zM506 789q25 13 51 13q-15 -53 9 -104h-120q3 29 19 53
t41 38zM351 667h323q21 0 36 -15.5t15 -36.5t-15 -36.5t-36 -15.5h-323q-21 0 -36.5 15.5t-15.5 36.5t15.5 36.5t36.5 15.5zM295 532h435q21 0 36.5 -15.5t15.5 -37t-15.5 -36.5t-36.5 -15h-435q-22 0 -37 15t-15 36.5t15 37t37 15.5zM243 396h539q21 0 36.5 -15t15.5 -36.5
t-15.5 -36.5t-36.5 -15h-539q-22 0 -37 15t-15 36.5t15 36.5t37 15zM201 261h65l67 -295h-36zM298 261h99l29 -295h-60zM458 -34l-29 295h167l-29 -295h-109zM598 -34l29 295h99l-67 -295h-61zM728 -34h-37l67 295h66z" />
    <glyph glyph-name="Donut" unicode="&#xe681;" 
d="M856 496q6 -19 -4.5 -58.5t-10.5 -53.5t10.5 -53.5t4.5 -58.5q-7 -19 -38.5 -45t-39.5 -36q-7 -11 -22 -49t-32 -50q-16 -12 -56.5 -14.5t-53.5 -6.5q-12 -4 -46.5 -26t-55.5 -22t-55.5 22t-46.5 26t-53 6.5t-57.5 14.5t-31 50t-22.5 49q-8 10 -39.5 36t-37.5 45t4 58.5
t10 53.5t-10 53.5t-4 58.5t37.5 45t39.5 36q7 11 22 49t32 50q16 12 57 14.5t53 6.5t46.5 26t55.5 22t55.5 -22t46.5 -26t53 -6.5t57.5 -14.5t31.5 -50t22 -49q8 -10 39.5 -36t38.5 -45zM659 384q0 61 -43 104t-104 43t-104 -43t-43 -104t43 -104t104 -43t104 43t43 104z
M386 92q-17 12 -32 50t-22 49q-8 10 -39.5 36t-38.5 45q-6 19 4.5 58.5t10.5 53.5t-10.5 53.5t-4.5 58.5q7 19 38.5 45t39.5 36q7 11 22 49t32 50q16 12 56.5 14.5t53.5 6.5q9 3 18.5 8.5t22 13.5t18.5 12q-24 14 -43 14q-21 0 -55.5 -22t-45.5 -26q-13 -4 -54 -6.5
t-57.5 -14.5t-31 -50t-22.5 -49q-7 -10 -39 -36t-38 -46q-6 -18 4 -57.5t10 -53.5t-10 -53.5t-4 -58.5t38 -45t39 -37q8 -10 22.5 -48t31.5 -50q16 -12 57 -14.5t54 -6.5q11 -4 45.5 -26t55.5 -22q19 0 43 14q-6 4 -18.5 12t-22 13.5t-18.5 8.5q-13 4 -53.5 6.5t-56.5 14.5z
M512.5 816q117.5 0 217 -58t157 -157.5t57.5 -216.5t-57.5 -216.5t-157 -157.5t-217 -58t-217 58t-157.5 157.5t-58 216.5t58 216.5t157.5 157.5t217 58zM841 384q0 14 10.5 53.5t4.5 58.5q-7 19 -38.5 45t-39.5 36q-7 11 -22 49t-32 50q-16 12 -56.5 14.5t-53.5 6.5
q-12 4 -46.5 26t-55.5 22t-55.5 -22t-46.5 -26t-53 -6.5t-57.5 -14.5t-31 -50t-22.5 -49q-8 -10 -39.5 -36t-37.5 -45t4 -58.5t10 -53.5t-10 -53.5t-4 -58.5t37.5 -45t39.5 -36q7 -11 22 -49t32 -50q16 -12 57 -14.5t53 -6.5t46.5 -26t55.5 -22t55.5 22t46.5 26
q13 4 53.5 6.5t57 14.5t31.5 50t22 49q8 10 39.5 36t38.5 45q6 19 -4.5 58.5t-10.5 53.5zM512.5 816q117.5 0 217 -58t157 -157.5t57.5 -216.5t-57.5 -216.5t-157 -157.5t-217 -58t-217 58t-157.5 157.5t-58 216.5t58 216.5t157.5 157.5t217 58zM841 384q0 14 10.5 53.5
t4.5 58.5q-7 19 -38.5 45t-39.5 36q-7 11 -22 49t-32 50q-16 12 -56.5 14.5t-53.5 6.5q-12 4 -46.5 26t-55.5 22t-55.5 -22t-46.5 -26t-53 -6.5t-57.5 -14.5t-31 -50t-22.5 -49q-8 -10 -39.5 -36t-37.5 -45t4 -58.5t10 -53.5t-10 -53.5t-4 -58.5t37.5 -45t39.5 -36
q7 -11 22 -49t32 -50q16 -12 57 -14.5t53 -6.5t46.5 -26t55.5 -22t55.5 22t46.5 26q13 4 53.5 6.5t57 14.5t31.5 50t22 49q8 10 39.5 36t38.5 45q6 19 -4.5 58.5t-10.5 53.5zM121 384q0 114 55 211.5t149.5 156t207.5 64.5h-21q-117 0 -216.5 -58t-157.5 -157.5t-58 -216.5
t58 -216.5t157.5 -157.5t216.5 -58h21q-113 6 -207.5 64.5t-149.5 156t-55 211.5zM694 117q-9 0 -14 7q-9 13 2 23q3 5 11 26q15 39 29 59q15 19 47 45q16 13 20 17q-1 6 -6 24q-11 41 -11 66t11 66q5 17 6 24t6.5 11.5t12.5 3.5t11.5 -7t3.5 -13q-2 -9 -7 -28
q-10 -37 -10 -57t10 -57q9 -33 6 -43v0v-1q-3 -10 -32 -33q-28 -23 -39.5 -39t-25.5 -50q-12 -34 -21 -40q-5 -4 -10 -4zM684 148zM789 291zM790 296zM730 539q-10 0 -15 8q-10 17 -22 48q-7 18 -10 24q-6 1 -26 2q-41 2 -65 10q-20 7 -46 23q-6 4 -7.5 11t2.5 13t10.5 7.5
t12.5 -2.5q22 -14 39 -20q19 -6 56 -8q36 -1 44 -8q9 -6 22 -40q11 -28 19 -42q4 -6 2.5 -13t-7.5 -11q-4 -2 -9 -2zM686 619zM686 619zM682 621zM682 621zM496 692v0q0 -7 5 -12t12.5 -5t12.5 5t5 12v0v0q0 7 -5 12t-12.5 5t-12.5 -5t-5 -12v0zM512 833q-91 0 -174 -35.5
t-143.5 -95.5t-96 -143.5t-35.5 -174.5t35.5 -174.5t96 -143.5t143.5 -95.5t174 -35.5t174.5 35.5t143.5 95.5t95.5 143.5t35.5 174.5t-35.5 174.5t-95.5 143.5t-143.5 95.5t-174.5 35.5zM512.5 -31q-112.5 0 -208 55.5t-151.5 151t-56 208.5t56 208.5t151.5 151t208 55.5
t208 -55.5t151 -151t55.5 -208.5t-55.5 -208.5t-151 -151t-208 -55.5zM512 548q-68 0 -116 -48t-48 -116t48 -116t116 -48t116 48t48 116t-48 116t-116 48zM512.5 254q-53.5 0 -91.5 38t-38 92t38 92t91.5 38t91.5 -38t38 -92t-38 -92t-91.5 -38zM858 384q0 13 8 43
q14 49 6 74t-49 58q-23 18 -30.5 28.5t-18.5 38.5q-18 48 -40 64q-21 15 -72 18q-31 1 -43 5q-11 4 -36 20q-44 29 -71 29t-71 -29q-25 -16 -36 -20q-12 -4 -42 -5q-52 -3 -73 -18t-40 -64q-11 -29 -18 -38.5t-30 -28.5q-41 -33 -49 -58t5 -74q8 -30 8 -43t-8 -43
q-13 -49 -5 -74t49 -58q23 -18 30.5 -28.5t17.5 -38.5q19 -48 40 -64q21 -15 73 -18q30 -1 42 -5t36 -20q44 -29 71 -29q28 0 71 29q25 16 36 20q12 4 43 5q51 3 72.5 18.5t39.5 63.5q11 29 18 39q8 10 31 28q41 33 49 58t-6 74q-8 30 -8 43zM833 332q11 -40 6 -54
q-5 -16 -38 -42q-26 -22 -36 -35.5t-23 -46.5q-14 -38 -28 -48q-13 -10 -54 -12q-35 -1 -51 -7q-16 -5 -45 -24q-35 -23 -52 -23t-52 23q-28 19 -44 24q-17 6 -52 7q-41 2 -54 11.5t-28 48.5q-12 33 -22 46.5t-37 35.5q-33 26 -38 42q-5 14 6 54q9 34 9 52t-9 52
q-11 40 -6 54q5 16 38 42q27 22 37 35.5t22 46.5q15 38 28 48t54 12q35 1 52 7q15 5 44 24q35 23 52 23t52 -23q28 -19 45 -24q16 -6 51 -7q41 -2 54 -11.5t28 -48.5q13 -33 23 -46.5t36 -35.5q33 -26 38 -42q5 -14 -6 -54q-9 -34 -9 -52t9 -52zM457 617l47 -31q5 -3 10 -3
q9 0 14 8q4 6 2.5 13t-7.5 11l-48 31q-6 4 -13 2.5t-10.5 -7.5t-2 -13t7.5 -11zM588 196l-49 -28q-7 -4 -8.5 -11t1.5 -13q5 -8 15 -8q4 0 8 2l50 28q6 3 8 10t-1.5 13t-10.5 8t-13 -1zM367 220q-1 7 -6.5 11.5t-12.5 4t-11.5 -6t-3.5 -12.5l5 -57q0 -7 5 -11.5t12 -4.5h1
q7 1 11.5 6.5t4.5 12.5zM278 504q-7 0 -12 -5t-5 -12l-1 -57q0 -7 5 -12t12.5 -5t12.5 5t5 12v57v0q0 7 -5 12t-12 5v0zM753 520l-56 9q-7 1 -13 -3t-7 -11t3 -13t11 -7l57 -9h2q15 0 17 14q1 7 -3 13t-11 7zM733 353v0q-7 0 -12 -5t-5 -12l-1 -57q0 -7 5 -12t12.5 -5
t12.5 5t5 12v57q0 7 -5 12t-12 5z" />
    <glyph glyph-name="FrenchFries" unicode="&#xe682;" 
d="M793 464h-54v148q54 -64 54 -148zM627 687v-334q-19 -10 -41 -10v0h-18v354q31 -1 59 -10zM456 697v-354h-18q-22 0 -41 10v334q29 9 59 10zM285 612v-148h-53q0 84 53 148zM397 749v-396q-20 11 -33.5 30t-15.5 43l-3 38h-60v249zM739 762v-298h-59l-3 -38
q-5 -50 -50 -73v377zM568 817v-474h-112v451l53 11zM771 252l-20 -195h-477l-20 195h517zM751 57l-11 -106h-456l-10 106h477zM338 730v-266h-53v249zM509 805v-462h-53v451zM680 745v-281v0l-3 -38q-5 -50 -50 -73v377zM793 464l-22 -212h-517l-22 212h113l3 -38
q4 -50 49 -73q19 -10 41 -10v0h148q22 0 41 10q45 23 49 73l4 38h113zM364 57h-90l-20 195h90zM375 -49h-91l-10 106h90zM323 464l21 -212h-90l-22 212h91zM699 -19h-1q-14 2 -14 15q0 1 1 2l38 373q1 14 14 14h2q13 -2 13 -15v-2l-38 -373q-1 -14 -15 -14v0zM728 418v0
q0 -6 4 -10t10.5 -4t10.5 4t4 10v0v0q0 6 -4 10.5t-10.5 4.5t-10.5 -4.5t-4 -10.5v0zM807 464q0 86 -53 154v144q0 7 -5.5 11.5t-13.5 2.5l-112 -32q-10 -3 -10 -14v-24q-15 4 -30 5v106q0 7 -5.5 11.5t-12.5 3.5l-112 -24q-12 -2 -12 -14v-83q-14 -2 -29 -5v43v0
q0 7 -6 11.5t-13 2.5l-112 -36q-11 -3 -11 -14v-95q-53 -68 -53 -154v-1l53 -514q1 -13 14 -13h456q13 0 15 13l52 514v1zM777 479h-23v84q20 -40 23 -84zM725 743v-264h-45q-6 0 -10 -4t-5 -10l-3 -38q-2 -26 -20 -45v337zM613 676v-313q-13 -5 -27 -5v0h-3v323
q25 -2 48 -11zM554 799v-441h-83v424zM441 681v-323h-3v0q-14 0 -27 5l1 313q14 4 29 5zM382 729v-347q-17 19 -19 46l-4 38q0 5 -4.5 9t-9.5 4h-45v223zM270 479h-23q3 45 23 84v-84zM270 237h484l-16 -165h-451zM298 -34l-8 76h445l-8 -76h-429zM758 267h-491l-19 183h83
l2 -25q4 -41 34 -69q30 -27 71 -27h148q41 0 71.5 27.5t33.5 68.5l2 25h83z" />
    <glyph glyph-name="Drink" unicode="&#xe683;" 
d="M719 18l-19 -67h-376l-18 67h369h44zM350 18h-44l18 -67h107l-18 67h-63zM321 712l8 -190h-81l-11 190h1h83zM448 712l2 -190h-121l-8 190h127zM577 712l-3 -190h-124l-2 190h129zM703 712l-7 -190h-122l3 190h126zM787 712l-11 -190h-80l7 190h83h1zM793 817l-6 -105h-1
h-549l-6 105h562zM425 817h-194l8 -105h2h193zM776 522l-30 -504h-71l21 504h79h1zM696 522l-21 -504h-108l7 504h122zM574 522l-7 -504h-110l-7 504h124zM450 522l7 -504h-107l-21 504h121zM329 522l21 -504h-72l-30 504h1h80zM806 828q-5 5 -13 5h-562q-7 0 -12 -5t-5 -12
l48 -799q0 -7 5 -11.5t11 -4.5h15l15 -54q4 -12 16 -12h376q13 0 16 12l15 54h15q7 0 12 4.5t5 11.5l47 799q1 7 -4 12zM776 800l-4 -72h-519l-4 72h527zM474 34l-10 661h96l-9 -660zM431 695l9 -660h-74l-28 660h93zM584 34l9 661h93l-27 -660zM255 695h50l27 -660h-38z
M687 -32h-350l-9 33h369zM731 34h-39l27 661h51zM699 73h-1q-7 0 -11.5 5.5t-3.5 11.5l26 436l3 74q0 6 5.5 11t12 4.5t11.5 -5.5t4 -12l-3 -74l-26 -436q0 -6 -5 -10.5t-12 -4.5zM712 655v0q0 -7 5 -11.5t12 -4.5t11.5 4.5t4.5 11.5v0v0q0 7 -4.5 12t-11.5 5t-12 -5t-5 -12
v0z" />
    <glyph glyph-name="FriedEgg" unicode="&#xe684;" 
d="M889 229q19 0 32.5 -13.5t13.5 -32.5t-13.5 -32.5t-32.5 -13.5t-32.5 13.5t-13.5 32.5t13.5 32.5t32.5 13.5zM945 467q1 -61 -31.5 -111.5t-86.5 -74.5q-69 -31 -114 -96q-48 -69 -123 -109t-162 -40q-96 0 -176.5 47.5t-127 129t-44.5 176.5q1 93 47.5 171.5
t125.5 124.5t171 47q87 1 164 -39q71 -37 147 -33q9 1 16 0q79 -1 135.5 -57.5t58.5 -135.5zM628 466q0 61 -43.5 104.5t-104.5 43.5t-104 -43.5t-43 -104.5t43 -104t104 -43t104.5 43t43.5 104zM148 389q2 133 92.5 230.5t221.5 110.5q-20 2 -38 2q-92 -1 -171 -47
t-125.5 -124.5t-47.5 -171.5q-2 -95 44.5 -176.5t127 -129t176.5 -47.5q16 0 34 2q-134 13 -225 114t-89 237zM480 614q61 0 104.5 -43.5t43.5 -104.5t-43.5 -104t-104.5 -43t-104 43t-43 104t43 104.5t104 43.5zM422 466q0 49 28.5 88t74.5 53q-21 7 -45 7v0
q-61 0 -104 -43.5t-43 -104.5t43 -104t104 -43q23 0 45 6q-46 15 -74.5 53.5t-28.5 87.5zM842 335q-7 0 -13 5q-4 6 -3.5 13t5.5 12q46 39 44 100q-1 51 -37.5 88t-87.5 38h-11q-95 -6 -183 40q-18 10 -38 16q-6 3 -9.5 9t-1 13t9 10t12.5 1q22 -8 43 -19q79 -41 165 -36h13
q65 -2 111.5 -48.5t48.5 -110.5q1 -77 -56 -127q-6 -4 -12 -4zM468 660h-3q-18 2 -37 2h-3q-7 0 -12 5t-5 12t5 12.5t12 5.5h3q21 0 42 -3q7 -1 11 -6.5t3 -12.5q0 -7 -5 -11t-11 -4zM548 382q-7 0 -12 5t-5 12t5 12q22 23 22 55q0 40 -32 64q-6 4 -7 11t3 12.5t11 7
t13 -3.5q47 -33 47 -91q0 -46 -33 -79q-5 -5 -12 -5zM478 561v0q0 -7 5 -12t12.5 -5t12.5 5t5 12v0q0 7 -5 12t-12.5 5t-12.5 -5t-5 -12zM962 467q-2 86 -63 147t-147 64q-11 0 -18 -1q-71 -4 -138 31q-80 42 -172 41q-148 -1 -253.5 -106.5t-107.5 -253.5q-1 -73 26 -141
t78.5 -120.5t119 -80.5t140.5 -28q90 0 169 41.5t131 114.5q42 61 107 90q60 27 94.5 82t33.5 120zM699 195q-47 -67 -118.5 -104.5t-152.5 -37.5q-139 0 -236 98.5t-95 237.5q2 134 98 229t230 97h3q81 0 152 -37q75 -39 156 -35q8 1 15 0q72 -1 123.5 -53t53.5 -124
q1 -55 -28 -101t-79 -69q-74 -32 -122 -101zM889 246q-26 0 -44.5 -18.5t-18.5 -44.5t18.5 -44.5t44.5 -18.5t44.5 18.5t18.5 44.5t-18.5 44.5t-44.5 18.5zM889 154q-12 0 -20.5 8.5t-8.5 20.5t8.5 20.5t20.5 8.5t20.5 -8.5t8.5 -20.5t-8.5 -20.5t-20.5 -8.5zM480 631
q-68 0 -116 -48.5t-48 -116.5t48 -116t116 -48t116.5 48t48.5 116t-48.5 116.5t-116.5 48.5zM480 336q-54 0 -92 38t-38 92t38 92.5t92 38.5t92.5 -38.5t38.5 -92.5t-38.5 -92t-92.5 -38zM733 410q0 -7 5 -12t12.5 -5t12.5 5t5 12t-5 12t-12.5 5t-12.5 -5t-5 -12zM461 201
q0 -7 5 -12t12 -5t12 5t5 12t-5 12t-12 5t-12 -5t-5 -12zM219 545v0q0 -7 5 -12t12 -5t12 5t5 12v0v0q0 7 -5 12t-12 5t-12 -5t-5 -12v0z" />
    <glyph glyph-name="Garlic" unicode="&#xe685;" 
d="M684 520zM692 600q14 15 47 15q82 0 140.5 -79.5t58.5 -192t-58.5 -192t-140.5 -79.5q-33 0 -108 13q-28 -23 -60 -35q-29 -11 -59 -11t-58 11q-32 12 -60 35q-75 -13 -109 -13q-82 0 -140 79.5t-58 192t58 192t140 79.5q34 0 48 -16q111 97 118 199h123q7 -102 118 -198
zM798 520zM745 85q-8 -7 -16 -12h10q23 0 45 6q-18 3 -39 6zM333 600q-14 15 -48 15q-82 0 -140 -79.5t-58 -192t58 -191.5t140 -79q22 0 70 6q-66 21 -109.5 95t-43.5 170q0 82 33 149.5t86 99.5zM834 162q-6 0 -11 4q-6 4 -6.5 11.5t3.5 12.5q47 62 47 154q0 60 -22.5 111
t-58.5 75q-6 4 -7.5 11t2 13t11 7.5t13.5 -2.5q44 -29 70.5 -87.5t26.5 -127.5q0 -104 -54 -175q-6 -7 -14 -7zM403 591q4 1 10.5 4t22.5 17t28.5 34t23 59t12.5 87l-48 1q-1 -6 -4 -16t-13.5 -38t-22.5 -51.5t-31.5 -48t-40.5 -36.5l12 -60zM646 186q-3 0 -5 1
q-7 2 -10.5 8.5t-0.5 13.5q53 160 -20 273q-4 6 -2.5 13t7.5 11t13 2.5t11 -7.5q83 -127 24 -303q-4 -12 -17 -12zM568 537v0q0 -7 5 -12t12.5 -5t12.5 5t5 12v0v0q0 7 -5 12.5t-12.5 5.5t-12.5 -5.5t-5 -12.5v0zM722 562v0q0 -8 5 -13t12 -5t12.5 5t5.5 13v0v0q0 7 -5.5 12
t-12.5 5t-12 -5t-5 -12v0zM894 546q-64 86 -155 86q-28 0 -46 -10q-96 88 -102 177q-1 7 -6 12t-11 5h-123q-7 0 -12 -5t-5 -12q-7 -89 -102 -177q-18 10 -47 10q-91 0 -154 -86q-62 -84 -62 -202t62 -202q63 -87 154 -87q33 0 104 12q20 -16 41 -26l-28 -53
q-3 -7 -0.5 -13.5t8.5 -10.5q4 -2 8 -2q11 0 15 10l29 57q17 -5 33 -6v-53q0 -7 5 -12.5t12 -5.5t12.5 5.5t5.5 12.5v53q16 1 32 6l29 -57q5 -10 16 -10q4 0 7 2q7 4 9 10.5t-1 13.5l-27 53q21 11 40 26q72 -12 104 -12q91 0 155 87q61 84 61 202t-61 202zM739 90
q-21 0 -72 7q39 44 61 105q2 7 -1 13.5t-9.5 9t-13 -0.5t-9.5 -10q-25 -72 -75 -114.5t-108 -42.5t-107.5 42.5t-75.5 114.5q-2 7 -8.5 10t-13.5 0.5t-10 -9t0 -13.5q21 -61 60 -105q-50 -7 -72 -7q-74 0 -127.5 74.5t-53.5 179.5t53 179.5t128 74.5q26 0 35 -10
q11 -14 4 -62q-31 -52 -43 -117q-1 -7 3 -12.5t11 -7.5h3q15 0 17 14q12 60 41 108v0.5v0.5q27 43 64 69q5 4 6.5 11.5t-2.5 13t-11.5 7t-13.5 -2.5q-24 -17 -44 -41q0 15 -2 26q99 89 114 186h91q15 -96 112 -185q-4 -9 -6 -20q-18 19 -39 34q-6 4 -13 2.5t-11 -7t-3 -13
t7 -11.5q37 -26 63 -69l1 -1q29 -48 40 -108q3 -14 17 -14h3q8 1 12 7t2 13q-12 65 -43 117q-6 48 5 62q8 10 34 10q75 0 128 -74.5t53 -179.5t-53 -179.5t-128 -74.5z" />
    <glyph glyph-name="Artichoke" unicode="&#xe686;" 
d="M513 812v-83q-27 -14 -50 -57.5t-33 -79.5l-9 -36q-29 107 -85 153q83 103 177 103zM689 709q-56 -46 -85 -153q-1 6 -3.5 15.5t-11 35.5t-18.5 47.5t-25.5 43.5t-32.5 31v83q93 0 176 -103zM755 537q-47 -26 -80 -66l5 8q-20 -18 -40 -67l-6 -12q0 -1 -1 -1
q-4 12 -10.5 28.5t-22 46.5t-38.5 54.5t-49 34.5q-53 -20 -94 -100q-17 -33 -27 -64l-1 1q-29 77 -97 123q-40 27 -88 36q14 32 40 73.5t45 67.5l19 26q11 -4 26 -16q56 -47 85 -154q1 6 3.5 15.5t11 35.5t18.5 48t26 43.5t33 30.5q27 -14 50 -57.5t32 -79.5l9 -36
q29 107 85 154q7 5 13.5 9t9.5 5l3 2q1 -2 4 -5.5t10 -15.5t12.5 -24t11.5 -30t9 -35.5t1.5 -38.5t-8.5 -40zM801 443q-7 -22 -15 -42q-102 -44 -142 -139q-1 6 -4.5 15t-16 33t-26.5 44t-37 40t-47 29q-46 -16 -84 -69q-14 -20 -26 -42.5t-17 -35.5l-5 -14q-39 95 -142 139
q-8 20 -15 42q-8 29 -12 58t-4 44v15q28 -5 62 -23q48 -26 81 -66l-5 8q20 -19 40 -68q3 -6 5 -11q0 -1 0.5 -1.5l0.5 -0.5v1q7 21 17 43q44 99 104 121q26 -10 49 -34.5t38.5 -54.5t22 -46.5t10.5 -28.5l1 -1v0.5t1 1.5q29 77 97 123q39 27 87 36q0 1 -2 1q2 -52 -16 -117z
M585 88v-135h-144v135q72 -15 144 0zM513 88v-135h-72v135q36 -15 72 0zM655 112q-56 -27 -121 -30q-7 -1 0 -1h-20q-37 0 -73.5 7.5t-70.5 23.5q-41 18 -73 45.5t-51.5 54.5t-33 59t-19.5 55.5t-9 48t-3 32.5v12v0q25 -4 58 -18q102 -44 142 -139q17 52 52 98q37 48 80 62
q24 -8 46.5 -27.5t37.5 -41.5t26 -42.5t16 -34.5l5 -14q40 95 142 139q15 7 29.5 11.5t21.5 5.5l7 1v-12t-3 -32.5t-9 -48t-19.5 -55.5t-33 -59t-51.5 -54.5t-73 -45.5zM514 81q-37 0 -73.5 7.5t-70.5 23.5q-56 25 -95.5 68t-57 77.5t-26.5 81t-9.5 56.5t-0.5 24
q25 -4 58 -18q102 -44 142 -139q17 52 52 98l3 -9q-2 -7 -4.5 -19t-4 -46t3.5 -65.5t25.5 -70.5t55.5 -67q0 -1 2 -2zM429 354q-14 -20 -26 -43t-17 -36l-5 -13q-39 95 -142 139q-8 20 -15 42q-8 29 -12 58t-4 44v15q28 -5 62 -23q48 -26 81 -66l-6 8q20 -18 41 -67
q2 -6 5 -12v-1.5t1 -0.5v1q7 21 16 42l2 -2q-6 -49 17 -78q2 -3 2 -7zM730 214q-6 0 -10 3q-13 11 -2 23q27 34 42 78q5 13 9 31q2 6 7.5 9.5t12 2t10.5 -7t2 -12.5q-4 -18 -10 -34q-18 -50 -48 -87q-5 -6 -13 -6zM419 463q-17 -33 -27 -64l-1 1q-29 77 -97 123
q-40 27 -88 36q14 32 40 73.5t45 67.5l19 26q1 -8 2 -20t8 -47.5t17.5 -66.5t31.5 -67t48 -60l1 -1zM751 414q-4 0 -7 1q-6 3 -8.5 9.5t0.5 12.5q8 17 16 60q2 7 7.5 10.5t12 2.5t10.5 -7t2 -12q-8 -46 -18 -68q-5 -9 -15 -9zM719 550v0q-7 0 -11.5 5t-4.5 12q0 23 -6 46
q-2 7 1.5 12.5t10 7.5t12.5 -1.5t8 -10.5q7 -28 6 -55q0 -7 -4.5 -11.5t-11.5 -4.5zM617 695q-8 0 -13 7q-20 26 -51 41v0q-7 3 -9.5 9.5t0.5 12.5t9.5 8.5t12.5 -0.5q39 -18 64 -51q4 -6 3.5 -12.5t-6.5 -10.5q-4 -4 -10 -4zM681 660v0q0 -7 5 -12t11.5 -5t11.5 5t5 12v0v0
q0 6 -5 11t-11.5 5t-11.5 -5t-5 -11v0zM860 420q0 8 -6 12q-6 5 -13 4q-9 -2 -27 -7q21 70 19 131q0 8 -6 12.5t-13 3.5q-16 -3 -35 -11q3 25 -1 51.5t-11 45.5t-17 38t-14.5 25t-7.5 11q-8 9 -19 5q-7 -2 -17 -9q-84 96 -179.5 96t-179.5 -96q-10 7 -17 9q-11 4 -18 -5
q-4 -4 -8.5 -11t-14.5 -25.5t-17 -37.5t-11 -45.5t-1 -51.5q-19 8 -35 11q-7 1 -13 -3.5t-6 -12.5q-2 -61 20 -131q-20 6 -28 7q-7 1 -13 -4t-6 -12q-2 -58 21 -126q47 -138 177 -197q29 -14 61 -22v-122q0 -7 5 -11.5t12 -4.5h143q7 0 12 4.5t5 11.5v122q65 17 118 54
q35 12 68.5 61.5t52.5 103.5q23 68 20 126zM667 711l-5 -5q-34 -36 -56 -94q-23 66 -62 121q4 -6 10 -14l6 -9l-3 3q-16 17 -28 25v56q72 -8 138 -83zM496 794v-56q-38 -26 -67 -101q-25 -61 -30 -129q1 71 -6 116t-14.5 59.5t-19.5 27.5q65 75 137 83zM292 660q10 23 23 44
q60 -39 90 -152q3 -12 16 -12v0q13 0 16 12q9 40 29 89t47 69q26 -20 46.5 -69t28.5 -88q3 -13 16 -13.5t16 12.5q30 113 90 152q54 -84 32 -156q-9 -5 -20 -12q-56 -37 -87 -96q-9 22 -21 43q-42 75 -95 95q-3 2 -6 2t-6 -2q-53 -20 -96 -95q-11 -20 -21 -42q-31 58 -87 95
q-10 7 -19 12q-16 51 8 112zM225 538q32 -10 60 -29q63 -42 91 -115v-0.5v-0.5v0v0v-1q5 -11 16.5 -10.5t14.5 11.5l1 1q14 44 41.5 89.5t63.5 61.5q35 -16 63 -61.5t42 -89.5v-1q3 -11 15 -12h1q11 0 15 11v1h0.5h0.5v1q27 73 91 115q28 19 59 29q-3 -65 -26 -124
q-8 -4 -17 -8q-72 -38 -111 -104q-10 20 -21 38q-47 78 -107 98q-3 1 -5.5 1t-5.5 -1q-60 -20 -107 -98q-11 -18 -21 -38q-39 66 -111 104q-9 4 -17 8q-22 59 -26 124zM568 -31h-111v100q28 -5 55.5 -5t55.5 5v-100zM808 304q-42 -124 -159 -177q-64 -30 -136.5 -30
t-137.5 30q-115 53 -158 177q-16 45 -19 95q19 -6 38 -14.5t45 -25t48.5 -43t36.5 -60.5q4 -10 15.5 -10t14.5 11q10 30 32 66q38 64 84 82q66 -26 117 -148q3 -11 14.5 -11t15.5 10q14 34 36.5 60.5t48 42.5t45 25t38.5 15q-3 -48 -19 -95z" />
    <glyph glyph-name="GingerbreadMan" unicode="&#xe687;" 
d="M512.5 288q11.5 0 19.5 -8.5t8 -20t-8 -20t-19.5 -8.5t-20 8t-8.5 20t8.5 20.5t20 8.5zM512.5 415q11.5 0 19.5 -8t8 -19.5t-8 -20t-19.5 -8.5t-20 8.5t-8.5 20t8.5 19.5t20 8zM578 585q7 -8 4.5 -18t-11.5 -15q-60 -30 -120 0q-10 5 -12 15t4 18h1q11 15 27 7
q40 -20 80 0q16 8 27 -7v0zM339 17l118 -12q-3 -23 -20 -38q-16 -15 -39 -15q-26 0 -44 19.5t-15 45.5v0zM568 5l118 6q0 -24 -17.5 -41.5t-41.5 -17.5q-23 0 -40 15t-19 38v0zM801 333q17 -17 17 -41.5t-17 -42t-41.5 -17.5t-41.5 18zM224 333l83 -83q-18 -18 -42 -18
t-41.5 17.5t-17.5 42t18 41.5zM801 333l-83 -83l-63 62l31 -295v-6l-118 -6l-17 129q-2 15 -13 24.5t-26 9.5t-26 -9.5t-12 -24.5l-17 -129l-118 12l30 295l-62 -62l-84 83l132 132q15 14 33 22q19 7 39 7q4 0 5 4t-3 7q-38 21 -61 60t-23 84q0 71 51 120.5t123 46.5
q67 -2 113.5 -51t46.5 -117q0 -45 -23 -83.5t-61 -59.5q-3 -2 -3 -5q0 -6 5 -6q42 0 72 -29zM571 552q9 5 11.5 15t-4.5 18v0q-11 15 -27 7q-40 -20 -80 0q-16 8 -27 -7h-1q-6 -8 -3.5 -18t11.5 -15q60 -30 120 0zM541 387q0 12 -8.5 20t-20 8t-20 -8t-8.5 -20t8.5 -20
t20 -8t20 8t8.5 20zM541 259.5q0 11.5 -8.5 20t-20 8.5t-20 -8.5t-8.5 -20t8.5 -20t20 -8.5t20 8.5t8.5 20zM419 39h-2q-6 1 -9.5 6t-2.5 10l11 86q5 36 32 61q11 9 20 -1q10 -11 -1 -20q-19 -17 -22 -43v-1l-12 -85q-1 -13 -14 -13v0zM638 36q-12 0 -14 13l-23 229
q-1 6 2.5 10.5t9.5 5t10.5 -3t5.5 -9.5l23 -230q1 -5 -2.5 -10t-9.5 -5h-2zM745 313q-6 0 -10 4l-90 90q-10 10 0 20t20 0l90 -90q10 -10 0 -20q-4 -4 -10 -4zM582 736q-4 0 -8 3q-18 12 -39 17q-6 1 -9 6t-2 11t6 9t11 2q27 -6 49 -22q12 -8 4 -20q-5 -6 -12 -6zM605 447
q0 -6 4 -10t10 -4t10.5 4t4.5 10t-4.5 10t-10.5 4t-10 -4t-4 -10zM596 322v0q0 -6 4 -10t10 -4t10.5 4t4.5 10v0v0q0 6 -4.5 10t-10.5 4t-10 -4t-4 -10v0zM811 343l-132 132q-24 24 -56 31q33 25 51.5 62.5t18.5 79.5q1 73 -50 126.5t-124 55.5q-77 3 -132.5 -50.5
t-55.5 -130.5q0 -42 19 -80t52 -63q-33 -7 -57 -31l-132 -132q-21 -22 -21 -52t21.5 -51.5t51.5 -21.5t52 22l34 34l-26 -256q-3 -32 18.5 -56t54.5 -24q28 0 49 18.5t24 46.5l17 129v0q1 10 8 16t16.5 6t16.5 -6t8 -16v0l17 -129q3 -28 24 -46.5t49 -18.5q30 0 51.5 21.5
t21.5 51.5v7l-27 256l35 -35q21 -21 51.5 -21t51.5 21.5t21.5 51.5t-21.5 52zM233.5 260q-12.5 13 -12.5 31q0 11 4 20l60 -60q-10 -4 -20 -4q-19 0 -31.5 13zM428 -22q-13 -12 -30 -12q-20 0 -34 15q-8 9 -10 20l84 -9q-3 -8 -10 -14v0zM627 -34q-28 0 -41 25l83 5
q-5 -13 -16.5 -21.5t-25.5 -8.5v0zM665 322q-4 5 -10 5q-3 0 -6 -2q-9 -4 -8 -14l29 -287l-90 -5l-15 117q-2 20 -17 33.5t-35.5 13.5t-35.5 -13.5t-18 -33.5l-15 -116l-89 10l28 281q2 10 -7.5 14.5t-16.5 -3.5l-52 -52l-63 63l122 122q25 25 61 25q15 0 19 15t-9 22
q-36 20 -56.5 56t-20.5 77q0 64 46.5 109.5t111.5 42.5q61 -2 104 -47t43 -106q0 -41 -21 -76.5t-56 -55.5q-13 -8 -9 -22.5t19 -14.5q36 0 61 -25l122 -122l-63 -63zM791 260q-13 -13 -31 -13q-11 0 -21 4l60 60q5 -9 5 -20q0 -18 -13 -31zM444 691q10 -11 20 -0.5t0 20.5
q-14 14 -35 14t-36 -14q-10 -10 0 -20q5 -5 10.5 -5t10.5 5q6 6 15 6t15 -6zM570 686q6 0 10 5q7 6 16 6t15 -6q10 -11 20 -0.5t0 20.5q-15 14 -35.5 14t-35.5 -14q-10 -10 0 -20q4 -5 10 -5zM512.5 430q-17.5 0 -30 -12.5t-12.5 -30t12.5 -30t30 -12.5t30 12.5t12.5 30
t-12.5 30t-30 12.5zM512 373q-6 0 -10 4t-4 10t4.5 10t10 4t9.5 -4t4 -10t-4 -10t-10 -4zM512.5 302q-17.5 0 -30 -12.5t-12.5 -30t12.5 -30t30 -12.5t30 12.5t12.5 30t-12.5 30t-30 12.5zM512 245q-6 0 -10 4t-4 10t4.5 10t10 4t9.5 -4t4 -10t-4 -10t-10 -4zM596 564
q4 16 -6 30h-1q-8 10 -20.5 13t-24.5 -3q-33 -16 -67 0q-11 6 -24 3t-21 -13v0q-10 -14 -6.5 -30.5t18.5 -24.5q31 -15 66.5 -15t66.5 15q16 8 19 25zM568.5 569.5q-0.5 -3.5 -3.5 -4.5q-26 -13 -54.5 -13t-53.5 13q-3 1 -4 5v2q0 2 2 4v1q2 3 6 3q2 0 4 -1q46 -23 92 0
q6 3 10 -2v0q2 -4 1.5 -7.5zM443 629v28v0q0 6 -4 10.5t-10 4.5v0v0q-6 0 -10 -4.5t-4 -10.5v0v-28v0q0 -6 4 -10t10 -4v0v0q6 0 10 4t4 10v0zM596 672v0q-6 0 -10 -4.5t-4 -10.5v0v-28v0q0 -6 4 -10t10 -4v0v0q6 0 10 4t4 10v0v28q0 6 -4 10.5t-10 4.5z" />
    <glyph glyph-name="HotDog" unicode="&#xe688;" 
d="M337 432v-77q0 -14 -10 -24t-24 -10t-23.5 10t-9.5 24v77h67zM718 432v-77q0 -14 -9.5 -24t-23.5 -10t-24 10t-10 24v77h67zM651 432v-199q0 -14 -9.5 -23.5t-23.5 -9.5h-5q-11 1 -19 9q-9 10 -9 24v199h66zM585 432v-168h-422q-35 0 -59.5 25t-24.5 59q0 38 28 63
q24 21 56 21h107v-77q0 -14 9.5 -24t23.5 -10t23.5 10t9.5 24v77h249zM197 349q0 31 21 54.5t52 28.5v0h-107q-35 0 -59.5 -24.5t-24.5 -59t24.5 -59.5t59.5 -25h118q-34 0 -59 25t-25 60zM946 348.5q0 -34.5 -25 -59t-59 -24.5h-211v90q0 -14 10 -24t24 -10t23.5 10t9.5 24
v77h144q34 0 59 -24q25 -25 25 -59.5zM862 265v-66q0 -23 -16.5 -39t-39.5 -16h-588q-23 0 -39 16t-16 39v66h422v-32q0 -14 9.5 -23.5t23.5 -9.5t23.5 9.5t9.5 23.5v32h211zM294 199v66h-131v-66q0 -23 16 -39t39 -16h132q-23 0 -39.5 16t-16.5 39zM676 624q76 -2 129 -56
q57 -56 57 -135h-699q0 77 54 133t132 58h6h315h6zM495 624h6h-146h-6q-78 -2 -132 -58t-54 -133h146q0 77 54 133t132 58zM614 432v-232q-12 1 -20 9q-9 10 -9 24v199h29zM299 431v-110q-11 2 -19 10q-10 10 -10 23v77h29zM681 431v-110q-11 2 -19 10q-10 10 -10 23v77h29z
M806 467q-10 0 -14 10q-10 27 -30 47q-18 18 -41 28q-5 2 -7.5 8t0 12t8.5 8t12 0q27 -12 49 -34q25 -25 38 -58q2 -6 -1 -12t-9 -8q-2 -1 -5 -1v0zM899 333q-6 0 -10.5 4.5t-4.5 11.5q0 9 -6.5 15.5t-15.5 6.5q-7 0 -11.5 4.5t-4.5 10.5t4.5 10.5t11.5 4.5q21 0 36.5 -15.5
t15.5 -36.5q0 -7 -4.5 -11.5t-10.5 -4.5zM961 349q0 41 -29 70q-24 23 -56 28q-5 81 -65 137t-141 56h-315q-82 0 -141.5 -56t-65.5 -137q-36 -6 -60 -33.5t-24 -64.5q0 -42 29 -71q23 -23 55 -27v-52q0 -29 20.5 -50t49.5 -21h588q29 0 50 21t21 50v52q36 5 60 33t24 65z
M636 233q0 -8 -5 -13t-13 -5t-13 5t-5 13v184h36v-184v0zM285 417h36v-62q0 -8 -5 -13.5t-12.5 -5.5t-13 5.5t-5.5 13.5v62v0zM667 417h36v-62q0 -8 -5.5 -13.5t-13 -5.5t-12.5 5.5t-5 13.5v62v0zM334 608v-52q0 -6 4 -10.5t10.5 -4.5t11 4.5t4.5 10.5v53h133v-53
q0 -6 4.5 -10.5t10.5 -4.5t10.5 4.5t4.5 10.5v53h133v-53q0 -6 4.5 -10.5t11 -4.5t11 4.5t4.5 10.5v52q62 -8 105.5 -53t49.5 -107h-667q5 62 49 107t106 53zM94 348.5q0 28.5 20 48.5t49 20h91v-62q0 -20 14.5 -34.5t34.5 -14.5t34.5 14.5t14.5 34.5v62h217v-137h-406
q-29 0 -49 20t-20 48.5zM846 199q0 -17 -11.5 -28.5t-28.5 -11.5h-588q-16 0 -28 11.5t-12 28.5v50h391v-16q0 -20 14.5 -34.5t34.5 -14.5t34.5 14.5t14.5 34.5v16h179v-50zM862 280h-195v30q9 -4 18 -4q20 0 34.5 14.5t14.5 34.5v62h128q28 0 48 -20t20 -48.5t-20 -48.5
t-48 -20z" />
    <glyph glyph-name="IceCream" unicode="&#xe689;" 
d="M755 554l-22 -94h-128v94h125h25zM734 596q0 -21 -4 -42h-435q-4 21 -4 42q0 91 64.5 156t156.5 65t157 -65t65 -156zM564 811q-25 6 -52 6q-92 0 -156.5 -64.5t-64.5 -156.5q0 -21 4 -42h103q-4 21 -4 42q0 77 48 137.5t122 77.5zM717 460l-205 -509l-205 509h219v-22
q0 -17 11.5 -28.5t28.5 -11.5v0q16 0 27.5 11.5t11.5 28.5v0v22h112zM605 460v-22q0 -17 -11.5 -28.5t-27.5 -11.5t-27.5 11.5t-11.5 28.5v116h78v-94v0zM526 554v-94h-235l-22 94h26h231zM512 -49l-60 509h-145zM269 554l22 -94h106l-18 93zM542 135q-3 0 -5 1
q-6 3 -8.5 8.5t-0.5 11.5l87 214q2 6 8 8.5t11.5 0t8 -8t0.5 -11.5l-87 -214q-3 -10 -14 -10zM687 585q-6 0 -10.5 4.5t-4.5 10.5q-1 51 -31.5 91.5t-78.5 56.5q-6 2 -9 7.5t-1 11.5t7.5 9t11.5 1q57 -19 93.5 -67.5t37.5 -108.5q1 -6 -3.5 -11t-10.5 -5h-1zM632 414v0
q0 -6 4.5 -10.5t11 -4.5t11 4.5t4.5 10.5v0v0q0 6 -4.5 10.5t-11 4.5t-11 -4.5t-4.5 -10.5v0zM497 770v0q0 -6 4.5 -10.5t11 -4.5t11 4.5t4.5 10.5v0v0q0 7 -4.5 11t-11 4t-11 -4t-4.5 -11v0zM767.5 563.5q-4.5 5.5 -12.5 5.5h-8q2 14 2 27q0 98 -69.5 167t-167.5 69
t-167 -69t-69 -167q0 -13 1 -27h-8q-7 0 -11.5 -5.5t-2.5 -13.5l21 -93q3 -12 15 -12h6l201 -500q4 -9 14 -9t14 9l202 500h5q12 0 15 12l22 93q2 8 -2.5 13.5zM512.5 802q85.5 0 146 -60.5t60.5 -145.5q0 -14 -2 -27h-112v0q-6 0 -10.5 -4.5t-4.5 -10.5v0v-116
q0 -10 -7 -17.5t-17 -7.5t-17 7.5t-7 17.5v116q0 6 -4.5 10.5t-11.5 4.5h-219q-1 13 -1 27q0 85 60.5 145.5t146 60.5zM288 539h223v-64h-208zM512 -9l-182 454h181v-7q0 -23 16 -39t38.5 -16t38.5 16t16 39v7h75zM721 475h-101v64h116z" />
    </font>
</defs>
</svg>
